<svg xmlns="http://www.w3.org/2000/svg" xmlns:xlink="http://www.w3.org/1999/xlink" width="500" zoomAndPan="magnify" viewBox="0 0 375 374.999991" height="500" preserveAspectRatio="xMidYMid meet" version="1.0"><defs><g/><clipPath id="d25a9b2873"><path d="M 125.042969 105.238281 L 263.027344 105.238281 L 263.027344 270.824219 L 125.042969 270.824219 Z M 125.042969 105.238281 " clip-rule="nonzero"/></clipPath><clipPath id="2457c69800"><path d="M 58 157 L 72 157 L 72 230.230469 L 58 230.230469 Z M 58 157 " clip-rule="nonzero"/></clipPath><clipPath id="bd540fb166"><path d="M 62 142.480469 L 68 142.480469 L 68 153 L 62 153 Z M 62 142.480469 " clip-rule="nonzero"/></clipPath><clipPath id="a21b3219b5"><path d="M 71 186 L 80.210938 186 L 80.210938 197 L 71 197 Z M 71 186 " clip-rule="nonzero"/></clipPath><clipPath id="409adad6c1"><path d="M 49.460938 186 L 58 186 L 58 197 L 49.460938 197 Z M 49.460938 186 " clip-rule="nonzero"/></clipPath><clipPath id="fb0d5c4867"><path d="M 71 197 L 80.210938 197 L 80.210938 208 L 71 208 Z M 71 197 " clip-rule="nonzero"/></clipPath><clipPath id="93f7e95d9d"><path d="M 49.460938 197 L 58 197 L 58 208 L 49.460938 208 Z M 49.460938 197 " clip-rule="nonzero"/></clipPath><clipPath id="0419eb0699"><path d="M 71 176 L 80.210938 176 L 80.210938 186 L 71 186 Z M 71 176 " clip-rule="nonzero"/></clipPath><clipPath id="827ac22f95"><path d="M 49.460938 176 L 58 176 L 58 186 L 49.460938 186 Z M 49.460938 176 " clip-rule="nonzero"/></clipPath><clipPath id="bdc3f6ee18"><path d="M 71 165 L 80.210938 165 L 80.210938 176 L 71 176 Z M 71 165 " clip-rule="nonzero"/></clipPath><clipPath id="f422facb9e"><path d="M 49.460938 165 L 58 165 L 58 176 L 49.460938 176 Z M 49.460938 165 " clip-rule="nonzero"/></clipPath><clipPath id="74465c01dc"><path d="M 303 157 L 317 157 L 317 230.230469 L 303 230.230469 Z M 303 157 " clip-rule="nonzero"/></clipPath><clipPath id="f1e4fd9960"><path d="M 307 142.480469 L 313 142.480469 L 313 153 L 307 153 Z M 307 142.480469 " clip-rule="nonzero"/></clipPath><clipPath id="4ddaf2c0b8"><path d="M 317 186 L 325.621094 186 L 325.621094 197 L 317 197 Z M 317 186 " clip-rule="nonzero"/></clipPath><clipPath id="707cad90b0"><path d="M 294.871094 186 L 304 186 L 304 197 L 294.871094 197 Z M 294.871094 186 " clip-rule="nonzero"/></clipPath><clipPath id="bd73c06078"><path d="M 317 197 L 325.621094 197 L 325.621094 208 L 317 208 Z M 317 197 " clip-rule="nonzero"/></clipPath><clipPath id="8c74fe7803"><path d="M 294.871094 197 L 304 197 L 304 208 L 294.871094 208 Z M 294.871094 197 " clip-rule="nonzero"/></clipPath><clipPath id="0ed7ded9c9"><path d="M 317 176 L 325.621094 176 L 325.621094 186 L 317 186 Z M 317 176 " clip-rule="nonzero"/></clipPath><clipPath id="d7526de8e0"><path d="M 294.871094 176 L 304 176 L 304 186 L 294.871094 186 Z M 294.871094 176 " clip-rule="nonzero"/></clipPath><clipPath id="4a34130e8f"><path d="M 317 165 L 325.621094 165 L 325.621094 176 L 317 176 Z M 317 165 " clip-rule="nonzero"/></clipPath><clipPath id="ae709efbc2"><path d="M 294.871094 165 L 304 165 L 304 176 L 294.871094 176 Z M 294.871094 165 " clip-rule="nonzero"/></clipPath></defs><g fill="#7b3911" fill-opacity="1"><g transform="translate(69.735905, 296.279781)"><g><path d="M 9.765625 2.328125 C 12.347656 4.066406 14.332031 3.90625 15.71875 1.84375 C 16.445312 0.769531 16.421875 -0.40625 15.640625 -1.6875 C 15.234375 -2.394531 14.640625 -3.203125 13.859375 -4.109375 C 13.078125 -5.015625 12.457031 -5.816406 12 -6.515625 C 11.550781 -7.222656 11.15625 -8.03125 10.8125 -8.9375 C 10.1875 -10.738281 10.535156 -12.625 11.859375 -14.59375 C 13.191406 -16.570312 14.921875 -17.664062 17.046875 -17.875 C 19.179688 -18.09375 21.351562 -17.457031 23.5625 -15.96875 C 25.769531 -14.476562 27.53125 -12.648438 28.84375 -10.484375 L 25.578125 -5.640625 L 22.109375 -7.640625 L 23.375 -9.515625 C 23.59375 -9.835938 23.710938 -10.101562 23.734375 -10.3125 C 23.773438 -10.875 23.148438 -11.585938 21.859375 -12.453125 C 20.578125 -13.316406 19.476562 -13.726562 18.5625 -13.6875 C 17.644531 -13.65625 16.867188 -13.164062 16.234375 -12.21875 C 15.765625 -11.53125 15.609375 -10.753906 15.765625 -9.890625 C 15.890625 -9.304688 16.21875 -8.671875 16.75 -7.984375 C 17.28125 -7.296875 17.84375 -6.570312 18.4375 -5.8125 C 19.039062 -5.0625 19.539062 -4.34375 19.9375 -3.65625 C 20.34375 -2.976562 20.707031 -2.179688 21.03125 -1.265625 C 21.695312 0.597656 21.34375 2.539062 19.96875 4.5625 C 18.601562 6.59375 16.800781 7.695312 14.5625 7.875 C 12.320312 8.0625 10.007812 7.351562 7.625 5.75 C 5.25 4.144531 3.40625 2.257812 2.09375 0.09375 L 5.53125 -5.015625 L 9 -3.015625 L 7.671875 -1.046875 C 7.453125 -0.710938 7.332031 -0.441406 7.3125 -0.234375 C 7.300781 -0.0234375 7.46875 0.289062 7.8125 0.71875 C 8.164062 1.15625 8.816406 1.691406 9.765625 2.328125 Z M 9.765625 2.328125 "/></g></g></g><g fill="#7b3911" fill-opacity="1"><g transform="translate(92.137216, 310.653235)"><g><path d="M 5.359375 -2.359375 L 13.625 -18.296875 L 11.6875 -19.4375 L 13.21875 -22.390625 L 21.609375 -18.03125 L 20.15625 -15.203125 L 18.953125 -15.703125 C 18.242188 -15.984375 17.71875 -15.789062 17.375 -15.125 L 9.09375 0.84375 L 11.015625 1.984375 L 9.484375 4.921875 L 1.109375 0.578125 L 2.5625 -2.21875 L 3.765625 -1.734375 C 4.140625 -1.609375 4.445312 -1.578125 4.6875 -1.640625 C 4.925781 -1.703125 5.148438 -1.941406 5.359375 -2.359375 Z M 5.359375 -2.359375 "/></g></g></g><g fill="#7b3911" fill-opacity="1"><g transform="translate(108.571533, 319.26214)"><g><path d="M 1.171875 0.421875 L 2.234375 -2.546875 L 3.609375 -2.203125 C 4.253906 -2.015625 4.691406 -2.242188 4.921875 -2.890625 L 11.046875 -19.96875 L 8.984375 -20.8125 L 10.109375 -23.953125 L 16.71875 -21.578125 L 21.0625 -0.984375 L 21.140625 -0.96875 L 26.03125 -14.609375 L 23.640625 -15.5625 L 24.765625 -18.703125 L 33.734375 -15.5 L 32.671875 -12.515625 L 31.296875 -12.875 C 30.691406 -13.03125 30.257812 -12.753906 30 -12.046875 L 22.765625 8.15625 L 18.46875 6.609375 L 13.984375 -14.3125 L 13.90625 -14.34375 L 8.9375 -0.453125 L 11.28125 0.515625 L 10.171875 3.640625 Z M 1.171875 0.421875 "/></g></g></g><g fill="#7b3911" fill-opacity="1"><g transform="translate(141.296449, 330.185723)"><g><path d="M 20.609375 -18.453125 C 20.398438 -18.984375 19.390625 -19.414062 17.578125 -19.75 C 15.203125 -20.175781 13.253906 -19.691406 11.734375 -18.296875 C 10.210938 -16.910156 9.175781 -14.691406 8.625 -11.640625 C 7.488281 -5.328125 9.289062 -1.742188 14.03125 -0.890625 C 14.101562 -0.878906 14.441406 -0.816406 15.046875 -0.703125 C 15.648438 -0.597656 16.238281 -0.578125 16.8125 -0.640625 C 17.382812 -0.710938 17.734375 -0.828125 17.859375 -0.984375 C 17.992188 -1.148438 18.097656 -1.425781 18.171875 -1.8125 L 18.71875 -4.875 L 22.578125 -3.90625 L 21.375 2.734375 C 19.195312 3.410156 16.570312 3.472656 13.5 2.921875 C 9.582031 2.222656 6.789062 0.59375 5.125 -1.96875 C 3.457031 -4.539062 3.015625 -8.003906 3.796875 -12.359375 C 4.234375 -14.753906 4.957031 -16.785156 5.96875 -18.453125 C 6.988281 -20.128906 8.175781 -21.359375 9.53125 -22.140625 C 12.175781 -23.640625 15.085938 -24.109375 18.265625 -23.546875 C 20.828125 -23.078125 23.140625 -22.125 25.203125 -20.6875 L 24.03125 -14.171875 L 20.078125 -14.59375 L 20.609375 -17.59375 C 20.679688 -17.96875 20.679688 -18.253906 20.609375 -18.453125 Z M 20.609375 -18.453125 "/></g></g></g><g fill="#7b3911" fill-opacity="1"><g transform="translate(171.158881, 334.963538)"><g><path d="M 19.84375 0.5625 L 1.328125 0.03125 L 1.421875 -3.125 L 2.703125 -3.203125 C 3.460938 -3.253906 3.851562 -3.609375 3.875 -4.265625 L 4.390625 -22.390625 L 2.15625 -22.5625 L 2.25 -25.890625 L 20.109375 -25.390625 L 19.9375 -18.90625 L 15.953125 -18.75 L 16 -20.296875 C 16.007812 -20.742188 15.953125 -21.0625 15.828125 -21.25 C 15.703125 -21.4375 15.394531 -21.535156 14.90625 -21.546875 L 9.125 -21.703125 L 8.9375 -15.046875 L 17.953125 -14.796875 L 17.84375 -10.8125 L 8.828125 -11.0625 L 8.609375 -3.765625 L 14.890625 -3.59375 C 15.359375 -3.582031 15.660156 -3.671875 15.796875 -3.859375 C 15.929688 -4.054688 16.007812 -4.375 16.03125 -4.8125 L 16.078125 -6.765625 L 20.046875 -6.375 Z M 19.84375 0.5625 "/></g></g></g><g fill="#7b3911" fill-opacity="1"><g transform="translate(198.701283, 335.065297)"><g/></g></g><g fill="#7b3911" fill-opacity="1"><g transform="translate(212.558901, 333.990796)"><g><path d="M 2.265625 -0.40625 L 1.734375 -3.359375 L 7.625 -14.390625 C 8.226562 -15.554688 8.628906 -16.332031 8.828125 -16.71875 C 9.023438 -17.113281 9.1875 -17.644531 9.3125 -18.3125 C 9.4375 -18.988281 9.414062 -19.765625 9.25 -20.640625 C 9.09375 -21.523438 8.660156 -22.195312 7.953125 -22.65625 C 7.253906 -23.113281 6.4375 -23.257812 5.5 -23.09375 C 4.5625 -22.925781 3.867188 -22.71875 3.421875 -22.46875 C 2.984375 -22.226562 2.738281 -22.003906 2.6875 -21.796875 C 2.632812 -21.585938 2.644531 -21.273438 2.71875 -20.859375 L 3.203125 -18.140625 L -0.75 -17.71875 L -1.859375 -23.84375 C 0.328125 -25.5 2.6875 -26.554688 5.21875 -27.015625 C 7.75 -27.472656 9.765625 -27.191406 11.265625 -26.171875 C 12.773438 -25.160156 13.722656 -23.582031 14.109375 -21.4375 C 14.503906 -19.289062 13.847656 -16.703125 12.140625 -13.671875 L 7.296875 -5.25 L 16.90625 -6.984375 L 17.59375 -3.1875 Z M 2.265625 -0.40625 "/></g></g></g><g fill="#7b3911" fill-opacity="1"><g transform="translate(238.666142, 328.815732)"><g><path d="M 2.0625 -27.671875 C 7.675781 -29.515625 11.820312 -26.367188 14.5 -18.234375 C 15.925781 -13.910156 16.238281 -10.5 15.4375 -8 C 14.632812 -5.507812 12.800781 -3.789062 9.9375 -2.84375 C 7.070312 -1.90625 4.609375 -2.195312 2.546875 -3.71875 C 0.484375 -5.25 -1.234375 -8.113281 -2.609375 -12.3125 C -3.992188 -16.519531 -4.242188 -19.90625 -3.359375 -22.46875 C -2.484375 -25.039062 -0.675781 -26.773438 2.0625 -27.671875 Z M 5.15625 -7.34375 C 6.28125 -6.300781 7.507812 -6 8.84375 -6.4375 C 10.1875 -6.882812 11.003906 -7.878906 11.296875 -9.421875 C 11.585938 -10.972656 11.195312 -13.375 10.125 -16.625 C 9.0625 -19.875 7.96875 -22.023438 6.84375 -23.078125 C 5.726562 -24.128906 4.488281 -24.429688 3.125 -23.984375 C 1.757812 -23.535156 0.945312 -22.507812 0.6875 -20.90625 C 0.4375 -19.3125 0.835938 -16.910156 1.890625 -13.703125 C 2.941406 -10.503906 4.03125 -8.382812 5.15625 -7.34375 Z M 5.15625 -7.34375 "/></g></g></g><g fill="#7b3911" fill-opacity="1"><g transform="translate(264.604294, 319.769814)"><g><path d="M 2.0625 -1.015625 L 0.734375 -3.703125 L 3.390625 -15.921875 C 3.660156 -17.210938 3.835938 -18.070312 3.921875 -18.5 C 4.003906 -18.925781 4.015625 -19.484375 3.953125 -20.171875 C 3.890625 -20.859375 3.660156 -21.601562 3.265625 -22.40625 C 2.867188 -23.207031 2.269531 -23.726562 1.46875 -23.96875 C 0.664062 -24.21875 -0.160156 -24.132812 -1.015625 -23.71875 C -1.867188 -23.300781 -2.472656 -22.914062 -2.828125 -22.5625 C -3.191406 -22.207031 -3.367188 -21.921875 -3.359375 -21.703125 C -3.359375 -21.492188 -3.265625 -21.203125 -3.078125 -20.828125 L -1.859375 -18.34375 L -5.5625 -16.828125 L -8.3125 -22.421875 C -6.65625 -24.609375 -4.671875 -26.265625 -2.359375 -27.390625 C -0.046875 -28.523438 1.96875 -28.8125 3.6875 -28.25 C 5.414062 -27.6875 6.757812 -26.425781 7.71875 -24.46875 C 8.6875 -22.507812 8.765625 -19.84375 7.953125 -16.46875 L 5.578125 -7.046875 L 14.34375 -11.34375 L 16.046875 -7.875 Z M 2.0625 -1.015625 "/></g></g></g><g fill="#7b3911" fill-opacity="1"><g transform="translate(288.283523, 307.664313)"><g><path d="M -2.71875 -15.703125 L 0.609375 -17.953125 C 1.347656 -19.640625 1.210938 -21.226562 0.203125 -22.71875 C -0.910156 -24.382812 -2.40625 -24.585938 -4.28125 -23.328125 C -4.96875 -22.859375 -5.492188 -22.390625 -5.859375 -21.921875 C -6.234375 -21.460938 -6.398438 -21.125 -6.359375 -20.90625 C -6.316406 -20.695312 -6.179688 -20.421875 -5.953125 -20.078125 L -4.390625 -17.75 L -7.84375 -15.75 L -11.328125 -20.921875 C -9.898438 -23.460938 -8.128906 -25.441406 -6.015625 -26.859375 C -3.898438 -28.285156 -1.992188 -28.867188 -0.296875 -28.609375 C 1.398438 -28.359375 2.765625 -27.46875 3.796875 -25.9375 C 4.546875 -24.8125 4.960938 -23.609375 5.046875 -22.328125 C 5.128906 -21.054688 4.910156 -19.835938 4.390625 -18.671875 C 7.046875 -19.453125 9.171875 -18.65625 10.765625 -16.28125 C 12.097656 -14.300781 12.5625 -12.285156 12.15625 -10.234375 C 11.75 -8.191406 10.332031 -6.351562 7.90625 -4.71875 C 6.726562 -3.925781 5.441406 -3.296875 4.046875 -2.828125 C 2.660156 -2.359375 1.476562 -2.101562 0.5 -2.0625 L -0.453125 -5.90625 C 1.890625 -6.101562 3.898438 -6.769531 5.578125 -7.90625 C 7.929688 -9.488281 8.40625 -11.328125 7 -13.421875 C 6.269531 -14.503906 5.378906 -15.054688 4.328125 -15.078125 C 3.285156 -15.109375 1.910156 -14.546875 0.203125 -13.390625 L -1.015625 -12.578125 Z M -2.71875 -15.703125 "/></g></g></g><g clip-path="url(#d25a9b2873)"><path fill="#7b3911" d="M 193.488281 202.113281 C 184.738281 200.519531 173.003906 194.296875 164.277344 184.695312 C 164.230469 184.023438 164.066406 180.546875 164.035156 179.988281 C 172.9375 190.285156 185.285156 199.117188 193.597656 200.867188 C 207.554688 203.808594 223.449219 199.242188 235.839844 191.363281 C 223.414062 199.730469 207.542969 204.667969 193.488281 202.113281 Z M 190.65625 257.09375 C 190.613281 257.429688 190.566406 257.761719 190.515625 258.085938 C 189.929688 260.5 188.003906 262.550781 186.824219 264.089844 C 185.800781 264.175781 186.488281 264.125 186.820312 264.09375 C 186.8125 264.105469 186.804688 264.113281 186.796875 264.121094 C 185.921875 264.324219 183.921875 264.402344 181.71875 264.445312 C 181.203125 264.457031 180.671875 264.464844 180.144531 264.472656 C 180.605469 264.15625 181.039062 263.753906 181.425781 263.238281 C 181.492188 263.15625 181.550781 263.078125 181.613281 263.003906 C 181.863281 262.792969 182.097656 262.558594 182.3125 262.304688 C 183.441406 261.453125 184.355469 262.160156 185.886719 263.128906 C 185.988281 263.089844 186.105469 263.058594 186.242188 263.039062 C 186.363281 262.882812 186.488281 262.726562 186.617188 262.566406 C 186.988281 262.109375 187.382812 261.617188 187.761719 261.097656 C 187.042969 260.527344 185.867188 259.574219 184.921875 258.691406 C 184.609375 258.402344 184.351562 258.039062 184.132812 257.625 C 184.136719 257.53125 184.140625 257.441406 184.140625 257.355469 C 184.140625 253.898438 184.339844 250.46875 184.339844 246.953125 C 184.339844 244.351562 184.925781 241.511719 185.667969 238.605469 C 185.777344 238.578125 185.886719 238.554688 185.996094 238.523438 C 185.9375 238.445312 185.875 238.371094 185.816406 238.292969 C 184.808594 236.925781 184.027344 235.363281 183.492188 233.679688 C 183.90625 233.757812 184.320312 233.828125 184.734375 233.894531 C 185.96875 237.335938 188.28125 240.035156 191.152344 241.292969 C 190.972656 247.070312 190.707031 255.46875 190.65625 257.09375 Z M 185.808594 193.320312 C 186.539062 193.089844 187.265625 192.824219 187.972656 192.527344 C 189.445312 193.265625 190.949219 193.960938 192.453125 194.625 C 194.484375 195.511719 196.539062 196.351562 198.632812 197.078125 C 202.3125 198.34375 207.132812 199.789062 211.617188 199.734375 C 207.234375 200.082031 202.375 199.042969 198.367188 197.96875 C 196.214844 197.386719 194.097656 196.691406 191.992188 195.941406 C 189.890625 195.183594 187.816406 194.375 185.75 193.460938 Z M 194.296875 188.980469 C 197.460938 190.6875 200.625 192.382812 203.855469 193.914062 C 207.71875 195.742188 211.675781 197.351562 215.820312 198.359375 C 211.605469 197.652344 207.523438 196.332031 203.535156 194.789062 C 199.847656 193.355469 196.234375 191.722656 192.628906 190.09375 C 193.195312 189.742188 193.75 189.371094 194.296875 188.980469 Z M 199.28125 184.71875 C 202.339844 186.6875 205.351562 188.730469 208.40625 190.667969 C 211.976562 192.941406 215.625 195.058594 219.460938 196.726562 C 215.523438 195.351562 211.730469 193.507812 208.023438 191.511719 C 204.652344 189.699219 201.335938 187.777344 197.988281 185.964844 C 198.425781 185.5625 198.855469 185.148438 199.28125 184.71875 Z M 202.59375 180.984375 C 209.574219 185.894531 216.828125 190.335938 224 194.921875 C 216.46875 190.796875 208.871094 186.832031 201.484375 182.324219 C 201.867188 181.890625 202.234375 181.441406 202.59375 180.984375 Z M 205.914062 176.230469 C 212.933594 181.820312 220.222656 187.019531 227.089844 192.921875 C 219.894531 187.5 212.339844 182.828125 204.976562 177.699219 C 205.300781 177.21875 205.613281 176.726562 205.914062 176.230469 Z M 208.515625 171.410156 C 215.839844 177.847656 223.996094 184.453125 231.523438 190.421875 C 223.742188 184.964844 215.324219 178.929688 207.730469 173.003906 C 208 172.476562 208.261719 171.945312 208.515625 171.410156 Z M 146.273438 135.8125 C 147.230469 137.34375 150.121094 137.492188 150.753906 136.359375 C 151.464844 135.101562 150.945312 130.863281 147.886719 128.386719 C 150.003906 129.292969 151.804688 131.886719 151.875 134.726562 C 151.929688 139.269531 146.816406 137.882812 146.273438 135.8125 Z M 143.328125 125.226562 C 142.785156 125.019531 141.171875 124.390625 141.136719 123.421875 C 141.070312 121.589844 143.558594 119.902344 144.777344 120.371094 C 145.753906 120.746094 147.316406 121.964844 146.621094 123.761719 C 145.984375 125.410156 144.734375 125.765625 143.328125 125.226562 Z M 262.238281 145.101562 C 261.457031 143.679688 260.132812 142.523438 258.441406 142.003906 C 258.441406 141.996094 258.433594 141.996094 258.421875 141.996094 C 256.738281 141.492188 254.992188 141.703125 253.550781 142.488281 C 252.089844 143.273438 231.636719 157.921875 225.269531 159.738281 C 207.667969 164.753906 191.058594 160.433594 190.769531 160.402344 C 171.789062 158.355469 168.4375 140.71875 164.242188 128.511719 C 163.179688 125.417969 159.714844 114.441406 148.328125 113.3125 C 147.609375 113.242188 146.769531 113.214844 145.882812 113.238281 C 146.109375 113 146.273438 112.792969 146.351562 112.636719 C 148.171875 108.878906 145.347656 106.011719 144.53125 105.289062 C 144.425781 105.199219 144.261719 105.230469 144.203125 105.359375 C 144 105.808594 143.570312 106.777344 143.308594 107.554688 C 143.253906 107.722656 143.023438 107.742188 142.933594 107.589844 L 142.003906 106.007812 C 141.910156 105.851562 141.671875 105.878906 141.621094 106.054688 L 140.929688 108.476562 C 140.882812 108.648438 140.652344 108.679688 140.554688 108.53125 L 139.160156 106.382812 C 139.066406 106.234375 138.84375 106.265625 138.789062 106.433594 L 137.574219 110.257812 C 137.523438 110.414062 137.324219 110.453125 137.21875 110.332031 L 135.789062 108.660156 C 135.675781 108.53125 135.460938 108.585938 135.425781 108.753906 L 134.652344 112.296875 C 134.613281 112.464844 134.402344 112.515625 134.292969 112.390625 L 133.464844 111.4375 C 133.351562 111.308594 133.140625 111.363281 133.105469 111.53125 L 132.234375 115.578125 C 132.199219 115.730469 132.019531 115.792969 131.902344 115.699219 L 131.164062 115.117188 C 131.050781 115.03125 130.886719 115.078125 130.839844 115.207031 C 130.394531 116.40625 128.703125 121.300781 129.953125 123.28125 C 129.992188 123.347656 130.042969 123.402344 130.09375 123.453125 C 126.15625 125.5 125.511719 128.242188 125.042969 129.414062 C 128.386719 127.125 133.914062 125.96875 137.660156 125.574219 C 137.730469 125.566406 137.800781 125.558594 137.867188 125.554688 L 137.878906 125.824219 L 137.925781 126.957031 C 134.230469 126.972656 128.597656 127.574219 125.058594 129.550781 C 125.703125 129.507812 126.34375 129.453125 126.980469 129.40625 C 130.496094 129.160156 132.84375 129.839844 134.234375 130.371094 C 134.257812 130.421875 134.28125 130.472656 134.304688 130.523438 C 134.6875 129.777344 135.113281 129.046875 135.578125 128.351562 C 134.417969 131.15625 132.992188 134.828125 133.839844 138.636719 C 134.316406 140.875 135.410156 142.242188 137.75 142.925781 C 141.640625 144.042969 144.523438 141.242188 145.308594 137.367188 C 145.328125 139.96875 143.9375 142.511719 141.785156 143.609375 C 140.480469 144.28125 139.460938 144.21875 138.277344 144.113281 C 138.09375 144.089844 137.921875 144.050781 137.75 144.015625 C 136.726562 151.351562 135.335938 161.691406 134.554688 169.367188 C 131.996094 194.632812 150.5625 221.070312 173.453125 230.660156 C 174.6875 234.113281 177 236.824219 179.882812 238.085938 C 179.699219 243.863281 179.4375 252.257812 179.386719 253.882812 C 179.34375 254.21875 179.296875 254.550781 179.246094 254.875 C 178.65625 257.289062 176.734375 259.339844 175.550781 260.878906 C 174.527344 260.964844 175.214844 260.917969 175.546875 260.882812 C 175.539062 260.894531 175.535156 260.902344 175.527344 260.910156 C 173.660156 261.34375 166.65625 261.21875 163.527344 261.367188 C 161.5625 261.460938 159.015625 261.183594 158.214844 263.007812 C 157.949219 263.613281 158 265.425781 158.910156 264.582031 C 159.914062 263.648438 161.402344 263.722656 162.710938 263.714844 C 165.417969 263.707031 172.679688 264.175781 172.679688 264.175781 C 171.167969 264.511719 167.359375 264.136719 167.234375 266.398438 C 167.195312 267.082031 167.34375 268.058594 168.0625 267.390625 C 168.480469 267 168.933594 266.707031 169.40625 266.476562 C 169.246094 267.214844 169.378906 268.539062 170.179688 267.792969 C 171.183594 266.859375 172.671875 266.933594 173.984375 266.925781 C 176.6875 266.917969 183.953125 267.386719 183.953125 267.386719 C 182.4375 267.71875 178.632812 267.347656 178.503906 269.609375 C 178.46875 270.292969 178.613281 271.265625 179.335938 270.597656 C 183.0625 267.136719 189.367188 270.871094 192.699219 266.449219 C 192.761719 266.367188 192.824219 266.289062 192.882812 266.210938 C 193.136719 266.003906 193.371094 265.769531 193.585938 265.511719 C 194.71875 264.65625 195.636719 265.378906 197.1875 266.355469 C 198.714844 267.320312 199.617188 267.703125 201.402344 267.40625 C 203.621094 267.035156 199.683594 264.8125 199.683594 264.8125 C 199.683594 264.8125 197.660156 263.269531 196.191406 261.902344 C 195.882812 261.613281 195.621094 261.25 195.402344 260.835938 C 195.410156 260.742188 195.410156 260.652344 195.410156 260.5625 C 195.410156 257.109375 195.609375 253.679688 195.609375 250.164062 C 195.609375 247.5625 196.199219 244.722656 196.941406 241.816406 C 201.171875 240.800781 204.628906 236.800781 205.8125 231.582031 C 213.835938 228.703125 221.824219 223.773438 228.28125 217.484375 C 234.222656 211.703125 240.296875 201.796875 244.097656 193.03125 C 245.984375 191.390625 247.53125 189.769531 247.859375 188.628906 C 248.332031 187 248.101562 185.332031 247.367188 183.925781 C 249.550781 182.09375 251.433594 180.21875 251.800781 178.949219 C 252.273438 177.316406 252.042969 175.648438 251.308594 174.242188 C 253.492188 172.414062 255.375 170.539062 255.742188 169.265625 C 256.21875 167.636719 255.984375 165.964844 255.246094 164.558594 C 257.433594 162.730469 259.316406 160.855469 259.683594 159.582031 C 260.167969 157.917969 259.917969 156.210938 259.140625 154.785156 C 259.070312 154.65625 258.988281 154.527344 258.90625 154.398438 C 260.84375 152.726562 262.445312 151.0625 262.78125 149.898438 C 263.265625 148.234375 263.015625 146.527344 262.238281 145.101562 " fill-opacity="1" fill-rule="nonzero"/></g><path fill="#7b3911" d="M 144.667969 122.46875 C 144.574219 122.710938 144.324219 122.835938 144.109375 122.757812 C 143.898438 122.671875 143.796875 122.410156 143.890625 122.171875 C 144.113281 121.597656 144.890625 121.894531 144.667969 122.46875 Z M 141.800781 123.308594 C 142.398438 123.65625 143.03125 124.148438 143.65625 124.386719 C 144.761719 124.8125 145.464844 124.144531 145.726562 123.46875 C 146.539062 121.359375 143.433594 119.46875 141.800781 123.308594 " fill-opacity="1" fill-rule="nonzero"/><g clip-path="url(#2457c69800)"><path stroke-linecap="round" transform="matrix(0.112185, 0, 0, 0.112143, 26.94335, 123.650221)" fill="none" stroke-linejoin="miter" d="M 337.907078 360.259904 L 337.558881 945.277042 " stroke="#000000" stroke-width="10" stroke-opacity="1" stroke-miterlimit="4"/></g><path fill="#7b3911" d="M 64.574219 150.609375 C 64.816406 150.601562 65.058594 150.640625 65.296875 150.726562 C 65.539062 150.8125 65.773438 150.941406 66.003906 151.121094 C 66.234375 151.296875 66.453125 151.515625 66.664062 151.777344 C 66.875 152.039062 67.070312 152.339844 67.253906 152.675781 C 67.4375 153.011719 67.601562 153.378906 67.75 153.773438 C 67.898438 154.171875 68.027344 154.59375 68.136719 155.035156 C 68.246094 155.480469 68.332031 155.9375 68.394531 156.410156 C 68.457031 156.882812 68.5 157.363281 68.515625 157.84375 C 68.53125 158.328125 68.527344 158.808594 68.496094 159.285156 C 68.464844 159.761719 68.410156 160.222656 68.332031 160.671875 C 68.257812 161.125 68.160156 161.550781 68.039062 161.957031 C 67.917969 162.367188 67.777344 162.742188 67.617188 163.089844 C 67.460938 163.4375 67.285156 163.75 67.09375 164.027344 C 66.902344 164.300781 66.695312 164.535156 66.480469 164.730469 C 66.261719 164.921875 66.035156 165.070312 65.804688 165.171875 C 65.570312 165.273438 65.332031 165.332031 65.089844 165.339844 C 64.847656 165.347656 64.605469 165.308594 64.367188 165.222656 C 64.125 165.136719 63.890625 165.003906 63.660156 164.828125 C 63.429688 164.648438 63.210938 164.429688 63 164.167969 C 62.789062 163.90625 62.59375 163.609375 62.410156 163.273438 C 62.226562 162.9375 62.058594 162.570312 61.910156 162.171875 C 61.761719 161.773438 61.636719 161.355469 61.527344 160.910156 C 61.417969 160.46875 61.332031 160.007812 61.269531 159.535156 C 61.207031 159.0625 61.164062 158.585938 61.148438 158.101562 C 61.132812 157.617188 61.136719 157.140625 61.167969 156.664062 C 61.199219 156.1875 61.253906 155.722656 61.328125 155.273438 C 61.40625 154.824219 61.503906 154.394531 61.625 153.988281 C 61.746094 153.582031 61.886719 153.203125 62.046875 152.855469 C 62.203125 152.507812 62.378906 152.195312 62.570312 151.921875 C 62.761719 151.644531 62.96875 151.410156 63.183594 151.21875 C 63.402344 151.027344 63.625 150.878906 63.859375 150.773438 C 64.09375 150.671875 64.332031 150.617188 64.574219 150.609375 Z M 64.574219 150.609375 " fill-opacity="1" fill-rule="nonzero"/><g clip-path="url(#bd540fb166)"><path fill="#7b3911" d="M 62.246094 152.785156 C 62.246094 152.785156 63.367188 151.59375 63.695312 150.859375 C 64.84375 148.289062 64.832031 142.496094 64.832031 142.496094 C 64.832031 142.496094 64.84375 148.597656 65.734375 151.007812 C 66 151.738281 67.027344 152.945312 67.027344 152.945312 Z M 62.246094 152.785156 " fill-opacity="1" fill-rule="nonzero"/></g><path fill="#7b3911" d="M 75.046875 193.164062 C 75.242188 193.304688 75.410156 193.480469 75.546875 193.695312 C 75.683594 193.910156 75.789062 194.160156 75.863281 194.441406 C 75.9375 194.722656 75.980469 195.03125 75.984375 195.367188 C 75.992188 195.699219 75.964844 196.058594 75.90625 196.433594 C 75.84375 196.8125 75.753906 197.203125 75.625 197.609375 C 75.5 198.015625 75.347656 198.425781 75.160156 198.84375 C 74.976562 199.261719 74.765625 199.675781 74.527344 200.089844 C 74.289062 200.503906 74.027344 200.90625 73.746094 201.300781 C 73.464844 201.691406 73.164062 202.066406 72.847656 202.425781 C 72.535156 202.785156 72.210938 203.117188 71.875 203.429688 C 71.539062 203.738281 71.199219 204.015625 70.855469 204.265625 C 70.511719 204.511719 70.167969 204.726562 69.832031 204.90625 C 69.492188 205.082031 69.164062 205.222656 68.84375 205.324219 C 68.523438 205.425781 68.214844 205.488281 67.925781 205.507812 C 67.636719 205.527344 67.367188 205.507812 67.121094 205.445312 C 66.871094 205.382812 66.648438 205.28125 66.453125 205.140625 C 66.257812 205 66.089844 204.820312 65.953125 204.605469 C 65.8125 204.390625 65.707031 204.144531 65.632812 203.863281 C 65.558594 203.582031 65.519531 203.273438 65.511719 202.9375 C 65.507812 202.601562 65.535156 202.246094 65.59375 201.867188 C 65.652344 201.492188 65.746094 201.097656 65.871094 200.695312 C 65.996094 200.289062 66.152344 199.878906 66.339844 199.460938 C 66.523438 199.042969 66.734375 198.628906 66.972656 198.214844 C 67.210938 197.800781 67.472656 197.398438 67.753906 197.003906 C 68.035156 196.613281 68.335938 196.234375 68.648438 195.878906 C 68.964844 195.519531 69.289062 195.1875 69.625 194.875 C 69.960938 194.566406 70.300781 194.289062 70.644531 194.039062 C 70.988281 193.789062 71.332031 193.578125 71.667969 193.398438 C 72.007812 193.21875 72.335938 193.082031 72.65625 192.980469 C 72.976562 192.878906 73.28125 192.816406 73.570312 192.796875 C 73.863281 192.777344 74.128906 192.796875 74.378906 192.859375 C 74.625 192.921875 74.847656 193.023438 75.046875 193.164062 Z M 75.046875 193.164062 " fill-opacity="1" fill-rule="nonzero"/><g clip-path="url(#a21b3219b5)"><path fill="#7b3911" d="M 71.871094 193.464844 C 71.871094 193.464844 73.488281 193.207031 74.195312 192.824219 C 76.675781 191.488281 80.207031 186.898438 80.207031 186.898438 C 80.207031 186.898438 76.488281 191.734375 75.71875 194.1875 C 75.484375 194.925781 75.558594 196.507812 75.558594 196.507812 Z M 71.871094 193.464844 " fill-opacity="1" fill-rule="nonzero"/></g><path fill="#7b3911" d="M 54.621094 193.164062 C 54.421875 193.304688 54.257812 193.480469 54.117188 193.695312 C 53.980469 193.914062 53.875 194.160156 53.800781 194.441406 C 53.726562 194.722656 53.6875 195.03125 53.679688 195.367188 C 53.671875 195.699219 53.699219 196.058594 53.761719 196.4375 C 53.820312 196.8125 53.914062 197.203125 54.039062 197.609375 C 54.164062 198.015625 54.320312 198.425781 54.503906 198.84375 C 54.691406 199.261719 54.902344 199.675781 55.140625 200.089844 C 55.378906 200.503906 55.636719 200.90625 55.921875 201.300781 C 56.203125 201.691406 56.5 202.070312 56.816406 202.425781 C 57.132812 202.785156 57.457031 203.117188 57.792969 203.429688 C 58.128906 203.738281 58.46875 204.015625 58.8125 204.265625 C 59.15625 204.511719 59.496094 204.726562 59.835938 204.90625 C 60.175781 205.082031 60.503906 205.222656 60.824219 205.324219 C 61.144531 205.425781 61.449219 205.488281 61.738281 205.507812 C 62.027344 205.527344 62.296875 205.507812 62.542969 205.445312 C 62.792969 205.382812 63.015625 205.28125 63.210938 205.140625 C 63.410156 205 63.574219 204.824219 63.714844 204.605469 C 63.851562 204.390625 63.957031 204.144531 64.03125 203.863281 C 64.105469 203.582031 64.144531 203.273438 64.152344 202.9375 C 64.160156 202.601562 64.132812 202.246094 64.070312 201.867188 C 64.011719 201.492188 63.917969 201.101562 63.792969 200.695312 C 63.667969 200.289062 63.511719 199.878906 63.328125 199.460938 C 63.140625 199.042969 62.929688 198.628906 62.691406 198.214844 C 62.453125 197.800781 62.195312 197.398438 61.910156 197.003906 C 61.628906 196.613281 61.332031 196.234375 61.015625 195.878906 C 60.699219 195.519531 60.375 195.1875 60.039062 194.875 C 59.703125 194.566406 59.363281 194.289062 59.019531 194.039062 C 58.675781 193.792969 58.335938 193.578125 57.996094 193.398438 C 57.65625 193.222656 57.328125 193.082031 57.007812 192.980469 C 56.6875 192.878906 56.382812 192.816406 56.09375 192.796875 C 55.804688 192.777344 55.535156 192.796875 55.285156 192.859375 C 55.039062 192.921875 54.816406 193.023438 54.621094 193.164062 Z M 54.621094 193.164062 " fill-opacity="1" fill-rule="nonzero"/><g clip-path="url(#409adad6c1)"><path fill="#7b3911" d="M 57.792969 193.464844 C 57.792969 193.464844 56.175781 193.207031 55.46875 192.824219 C 52.992188 191.488281 49.460938 186.898438 49.460938 186.898438 C 49.460938 186.898438 53.175781 191.734375 53.945312 194.1875 C 54.179688 194.925781 54.105469 196.507812 54.105469 196.507812 Z M 57.792969 193.464844 " fill-opacity="1" fill-rule="nonzero"/></g><path fill="#7b3911" d="M 75.046875 203.855469 C 75.242188 204 75.410156 204.175781 75.546875 204.390625 C 75.683594 204.605469 75.789062 204.855469 75.863281 205.132812 C 75.9375 205.414062 75.980469 205.722656 75.984375 206.058594 C 75.992188 206.394531 75.964844 206.75 75.90625 207.128906 C 75.84375 207.507812 75.753906 207.898438 75.625 208.304688 C 75.5 208.710938 75.347656 209.121094 75.160156 209.539062 C 74.976562 209.957031 74.765625 210.371094 74.527344 210.785156 C 74.289062 211.195312 74.027344 211.601562 73.746094 211.992188 C 73.464844 212.386719 73.164062 212.761719 72.847656 213.121094 C 72.535156 213.480469 72.210938 213.8125 71.875 214.121094 C 71.539062 214.429688 71.199219 214.710938 70.855469 214.957031 C 70.511719 215.207031 70.167969 215.421875 69.832031 215.597656 C 69.492188 215.777344 69.164062 215.917969 68.84375 216.019531 C 68.523438 216.121094 68.214844 216.179688 67.925781 216.199219 C 67.636719 216.222656 67.367188 216.199219 67.121094 216.140625 C 66.871094 216.078125 66.648438 215.976562 66.453125 215.835938 C 66.257812 215.695312 66.089844 215.515625 65.953125 215.300781 C 65.8125 215.085938 65.707031 214.839844 65.632812 214.558594 C 65.558594 214.277344 65.519531 213.96875 65.511719 213.632812 C 65.507812 213.296875 65.535156 212.941406 65.59375 212.5625 C 65.652344 212.183594 65.746094 211.792969 65.871094 211.386719 C 65.996094 210.984375 66.152344 210.570312 66.339844 210.15625 C 66.523438 209.738281 66.734375 209.320312 66.972656 208.910156 C 67.210938 208.496094 67.472656 208.09375 67.753906 207.699219 C 68.035156 207.304688 68.335938 206.929688 68.648438 206.570312 C 68.964844 206.214844 69.289062 205.878906 69.625 205.570312 C 69.960938 205.261719 70.300781 204.980469 70.644531 204.734375 C 70.988281 204.484375 71.332031 204.269531 71.667969 204.09375 C 72.007812 203.914062 72.335938 203.773438 72.65625 203.671875 C 72.976562 203.574219 73.28125 203.511719 73.570312 203.492188 C 73.863281 203.472656 74.128906 203.492188 74.378906 203.554688 C 74.625 203.613281 74.847656 203.714844 75.046875 203.855469 Z M 75.046875 203.855469 " fill-opacity="1" fill-rule="nonzero"/><g clip-path="url(#fb0d5c4867)"><path fill="#7b3911" d="M 71.871094 204.160156 C 71.871094 204.160156 73.488281 203.898438 74.195312 203.519531 C 76.675781 202.183594 80.207031 197.589844 80.207031 197.589844 C 80.207031 197.589844 76.488281 202.429688 75.71875 204.878906 C 75.484375 205.621094 75.558594 207.203125 75.558594 207.203125 Z M 71.871094 204.160156 " fill-opacity="1" fill-rule="nonzero"/></g><path fill="#7b3911" d="M 54.621094 203.855469 C 54.425781 204 54.257812 204.175781 54.117188 204.390625 C 53.980469 204.605469 53.875 204.855469 53.800781 205.136719 C 53.726562 205.414062 53.6875 205.722656 53.679688 206.058594 C 53.671875 206.394531 53.699219 206.75 53.761719 207.128906 C 53.820312 207.507812 53.914062 207.898438 54.039062 208.304688 C 54.164062 208.710938 54.320312 209.121094 54.503906 209.539062 C 54.691406 209.957031 54.902344 210.371094 55.140625 210.785156 C 55.378906 211.195312 55.640625 211.601562 55.921875 211.992188 C 56.203125 212.386719 56.5 212.761719 56.816406 213.121094 C 57.132812 213.480469 57.457031 213.8125 57.792969 214.121094 C 58.128906 214.429688 58.46875 214.710938 58.8125 214.957031 C 59.15625 215.207031 59.496094 215.421875 59.835938 215.597656 C 60.175781 215.777344 60.503906 215.917969 60.824219 216.019531 C 61.144531 216.121094 61.449219 216.179688 61.738281 216.199219 C 62.027344 216.222656 62.296875 216.199219 62.546875 216.140625 C 62.792969 216.078125 63.015625 215.976562 63.210938 215.835938 C 63.410156 215.695312 63.578125 215.515625 63.714844 215.300781 C 63.851562 215.085938 63.957031 214.839844 64.03125 214.558594 C 64.105469 214.277344 64.144531 213.96875 64.152344 213.632812 C 64.160156 213.296875 64.132812 212.941406 64.074219 212.5625 C 64.011719 212.183594 63.917969 211.792969 63.792969 211.386719 C 63.667969 210.984375 63.511719 210.570312 63.328125 210.15625 C 63.144531 209.738281 62.929688 209.320312 62.691406 208.910156 C 62.453125 208.496094 62.195312 208.09375 61.914062 207.699219 C 61.628906 207.304688 61.332031 206.929688 61.015625 206.570312 C 60.703125 206.214844 60.375 205.878906 60.039062 205.570312 C 59.703125 205.261719 59.363281 204.980469 59.019531 204.734375 C 58.675781 204.484375 58.335938 204.273438 57.996094 204.09375 C 57.660156 203.914062 57.328125 203.773438 57.007812 203.671875 C 56.6875 203.574219 56.382812 203.511719 56.09375 203.492188 C 55.804688 203.472656 55.535156 203.492188 55.289062 203.554688 C 55.039062 203.613281 54.816406 203.714844 54.621094 203.855469 Z M 54.621094 203.855469 " fill-opacity="1" fill-rule="nonzero"/><g clip-path="url(#93f7e95d9d)"><path fill="#7b3911" d="M 57.792969 204.160156 C 57.792969 204.160156 56.175781 203.898438 55.46875 203.519531 C 52.992188 202.183594 49.460938 197.589844 49.460938 197.589844 C 49.460938 197.589844 53.179688 202.429688 53.949219 204.878906 C 54.179688 205.621094 54.109375 207.203125 54.109375 207.203125 Z M 57.792969 204.160156 " fill-opacity="1" fill-rule="nonzero"/></g><path fill="#7b3911" d="M 75.046875 182.46875 C 75.242188 182.609375 75.410156 182.789062 75.546875 183.003906 C 75.683594 183.21875 75.789062 183.464844 75.863281 183.746094 C 75.9375 184.027344 75.980469 184.335938 75.984375 184.671875 C 75.992188 185.007812 75.964844 185.363281 75.90625 185.742188 C 75.84375 186.121094 75.753906 186.511719 75.625 186.917969 C 75.5 187.320312 75.347656 187.734375 75.160156 188.148438 C 74.976562 188.566406 74.765625 188.984375 74.527344 189.394531 C 74.289062 189.808594 74.027344 190.210938 73.746094 190.605469 C 73.464844 191 73.164062 191.375 72.847656 191.734375 C 72.535156 192.089844 72.207031 192.425781 71.875 192.734375 C 71.539062 193.042969 71.199219 193.324219 70.855469 193.570312 C 70.507812 193.820312 70.167969 194.035156 69.828125 194.210938 C 69.492188 194.390625 69.160156 194.53125 68.84375 194.632812 C 68.523438 194.730469 68.214844 194.792969 67.925781 194.8125 C 67.636719 194.832031 67.367188 194.8125 67.121094 194.75 C 66.871094 194.691406 66.648438 194.589844 66.453125 194.449219 C 66.257812 194.304688 66.089844 194.128906 65.953125 193.914062 C 65.8125 193.699219 65.707031 193.449219 65.632812 193.171875 C 65.558594 192.890625 65.519531 192.582031 65.511719 192.246094 C 65.507812 191.910156 65.53125 191.554688 65.59375 191.175781 C 65.652344 190.796875 65.746094 190.40625 65.871094 190 C 65.996094 189.59375 66.152344 189.183594 66.335938 188.765625 C 66.523438 188.347656 66.734375 187.933594 66.972656 187.519531 C 67.210938 187.109375 67.472656 186.703125 67.753906 186.3125 C 68.035156 185.917969 68.335938 185.542969 68.648438 185.183594 C 68.964844 184.824219 69.289062 184.492188 69.625 184.183594 C 69.960938 183.875 70.300781 183.59375 70.644531 183.347656 C 70.988281 183.097656 71.332031 182.882812 71.667969 182.707031 C 72.007812 182.527344 72.335938 182.386719 72.65625 182.285156 C 72.976562 182.183594 73.28125 182.125 73.570312 182.105469 C 73.863281 182.082031 74.128906 182.105469 74.378906 182.164062 C 74.625 182.226562 74.847656 182.328125 75.046875 182.46875 Z M 75.046875 182.46875 " fill-opacity="1" fill-rule="nonzero"/><g clip-path="url(#0419eb0699)"><path fill="#7b3911" d="M 71.871094 182.773438 C 71.871094 182.773438 73.488281 182.511719 74.195312 182.132812 C 76.675781 180.796875 80.207031 176.203125 80.207031 176.203125 C 80.207031 176.203125 76.488281 181.042969 75.71875 183.492188 C 75.484375 184.234375 75.558594 185.816406 75.558594 185.816406 Z M 71.871094 182.773438 " fill-opacity="1" fill-rule="nonzero"/></g><path fill="#7b3911" d="M 54.621094 182.46875 C 54.425781 182.609375 54.257812 182.789062 54.117188 183.003906 C 53.980469 183.21875 53.875 183.464844 53.800781 183.746094 C 53.726562 184.027344 53.6875 184.335938 53.679688 184.671875 C 53.671875 185.007812 53.699219 185.363281 53.761719 185.742188 C 53.820312 186.121094 53.914062 186.511719 54.039062 186.917969 C 54.164062 187.320312 54.320312 187.734375 54.503906 188.148438 C 54.691406 188.566406 54.902344 188.984375 55.140625 189.394531 C 55.378906 189.808594 55.640625 190.210938 55.921875 190.605469 C 56.203125 191 56.5 191.375 56.816406 191.734375 C 57.132812 192.089844 57.457031 192.425781 57.792969 192.734375 C 58.128906 193.042969 58.46875 193.324219 58.8125 193.570312 C 59.15625 193.820312 59.496094 194.035156 59.835938 194.210938 C 60.175781 194.390625 60.503906 194.53125 60.824219 194.632812 C 61.144531 194.734375 61.449219 194.792969 61.738281 194.8125 C 62.027344 194.832031 62.296875 194.8125 62.546875 194.75 C 62.792969 194.691406 63.015625 194.589844 63.210938 194.449219 C 63.410156 194.308594 63.578125 194.128906 63.714844 193.914062 C 63.851562 193.699219 63.957031 193.449219 64.03125 193.171875 C 64.105469 192.890625 64.144531 192.582031 64.152344 192.246094 C 64.160156 191.910156 64.132812 191.554688 64.074219 191.175781 C 64.011719 190.796875 63.917969 190.40625 63.792969 190 C 63.667969 189.59375 63.511719 189.183594 63.328125 188.765625 C 63.144531 188.347656 62.929688 187.933594 62.691406 187.519531 C 62.453125 187.109375 62.195312 186.703125 61.914062 186.3125 C 61.628906 185.917969 61.332031 185.542969 61.015625 185.183594 C 60.703125 184.824219 60.375 184.492188 60.039062 184.183594 C 59.703125 183.875 59.363281 183.59375 59.019531 183.347656 C 58.675781 183.097656 58.335938 182.882812 57.996094 182.707031 C 57.660156 182.527344 57.328125 182.386719 57.007812 182.285156 C 56.6875 182.183594 56.382812 182.125 56.09375 182.105469 C 55.804688 182.082031 55.535156 182.105469 55.289062 182.164062 C 55.039062 182.226562 54.816406 182.328125 54.621094 182.46875 Z M 54.621094 182.46875 " fill-opacity="1" fill-rule="nonzero"/><g clip-path="url(#827ac22f95)"><path fill="#7b3911" d="M 57.792969 182.773438 C 57.792969 182.773438 56.175781 182.511719 55.46875 182.132812 C 52.992188 180.796875 49.460938 176.203125 49.460938 176.203125 C 49.460938 176.203125 53.179688 181.042969 53.949219 183.492188 C 54.179688 184.234375 54.109375 185.816406 54.109375 185.816406 Z M 57.792969 182.773438 " fill-opacity="1" fill-rule="nonzero"/></g><path fill="#7b3911" d="M 75.046875 171.777344 C 75.242188 171.917969 75.410156 172.09375 75.546875 172.308594 C 75.683594 172.523438 75.789062 172.773438 75.863281 173.054688 C 75.9375 173.332031 75.980469 173.640625 75.984375 173.976562 C 75.992188 174.3125 75.964844 174.671875 75.90625 175.046875 C 75.84375 175.425781 75.753906 175.816406 75.625 176.222656 C 75.5 176.628906 75.347656 177.039062 75.160156 177.457031 C 74.976562 177.875 74.765625 178.289062 74.527344 178.703125 C 74.289062 179.113281 74.027344 179.519531 73.746094 179.910156 C 73.464844 180.304688 73.164062 180.679688 72.847656 181.039062 C 72.535156 181.398438 72.207031 181.730469 71.875 182.039062 C 71.539062 182.347656 71.199219 182.628906 70.855469 182.878906 C 70.507812 183.125 70.167969 183.339844 69.828125 183.519531 C 69.492188 183.695312 69.160156 183.835938 68.84375 183.9375 C 68.523438 184.039062 68.214844 184.097656 67.925781 184.121094 C 67.636719 184.140625 67.367188 184.117188 67.121094 184.058594 C 66.871094 183.996094 66.648438 183.894531 66.453125 183.753906 C 66.257812 183.613281 66.089844 183.433594 65.953125 183.21875 C 65.8125 183.003906 65.707031 182.757812 65.632812 182.476562 C 65.558594 182.195312 65.519531 181.886719 65.511719 181.550781 C 65.507812 181.214844 65.53125 180.859375 65.59375 180.480469 C 65.652344 180.101562 65.746094 179.710938 65.871094 179.308594 C 65.996094 178.902344 66.152344 178.488281 66.335938 178.074219 C 66.523438 177.65625 66.734375 177.242188 66.972656 176.828125 C 67.210938 176.414062 67.472656 176.011719 67.753906 175.617188 C 68.035156 175.222656 68.335938 174.847656 68.648438 174.492188 C 68.964844 174.132812 69.289062 173.796875 69.625 173.488281 C 69.960938 173.179688 70.300781 172.902344 70.644531 172.652344 C 70.988281 172.402344 71.332031 172.191406 71.667969 172.011719 C 72.007812 171.832031 72.335938 171.691406 72.65625 171.59375 C 72.976562 171.492188 73.28125 171.429688 73.570312 171.410156 C 73.863281 171.390625 74.128906 171.410156 74.378906 171.472656 C 74.625 171.535156 74.847656 171.632812 75.046875 171.777344 Z M 75.046875 171.777344 " fill-opacity="1" fill-rule="nonzero"/><g clip-path="url(#bdc3f6ee18)"><path fill="#7b3911" d="M 71.871094 172.078125 C 71.871094 172.078125 73.488281 171.820312 74.195312 171.4375 C 76.675781 170.101562 80.207031 165.511719 80.207031 165.511719 C 80.207031 165.511719 76.488281 170.347656 75.71875 172.800781 C 75.484375 173.539062 75.558594 175.121094 75.558594 175.121094 Z M 71.871094 172.078125 " fill-opacity="1" fill-rule="nonzero"/></g><path fill="#7b3911" d="M 54.621094 171.777344 C 54.425781 171.917969 54.257812 172.09375 54.117188 172.308594 C 53.980469 172.523438 53.875 172.773438 53.800781 173.054688 C 53.726562 173.335938 53.6875 173.640625 53.679688 173.976562 C 53.671875 174.3125 53.699219 174.671875 53.761719 175.046875 C 53.820312 175.425781 53.914062 175.816406 54.039062 176.222656 C 54.164062 176.628906 54.320312 177.039062 54.503906 177.457031 C 54.691406 177.875 54.902344 178.289062 55.140625 178.703125 C 55.378906 179.117188 55.640625 179.519531 55.921875 179.910156 C 56.203125 180.304688 56.5 180.679688 56.816406 181.039062 C 57.132812 181.398438 57.457031 181.730469 57.792969 182.039062 C 58.128906 182.351562 58.46875 182.628906 58.8125 182.878906 C 59.15625 183.125 59.496094 183.339844 59.835938 183.519531 C 60.175781 183.695312 60.503906 183.835938 60.824219 183.9375 C 61.144531 184.039062 61.449219 184.097656 61.738281 184.121094 C 62.027344 184.140625 62.296875 184.121094 62.546875 184.058594 C 62.792969 183.996094 63.015625 183.894531 63.210938 183.753906 C 63.410156 183.613281 63.578125 183.433594 63.714844 183.21875 C 63.851562 183.003906 63.957031 182.757812 64.03125 182.476562 C 64.105469 182.195312 64.144531 181.886719 64.152344 181.550781 C 64.160156 181.214844 64.132812 180.859375 64.074219 180.480469 C 64.011719 180.105469 63.917969 179.710938 63.792969 179.308594 C 63.667969 178.902344 63.515625 178.492188 63.328125 178.074219 C 63.144531 177.65625 62.929688 177.242188 62.691406 176.828125 C 62.453125 176.414062 62.195312 176.011719 61.914062 175.617188 C 61.628906 175.222656 61.332031 174.847656 61.015625 174.492188 C 60.703125 174.132812 60.375 173.796875 60.039062 173.488281 C 59.703125 173.179688 59.363281 172.902344 59.019531 172.652344 C 58.675781 172.402344 58.335938 172.191406 57.996094 172.011719 C 57.660156 171.832031 57.328125 171.695312 57.007812 171.59375 C 56.6875 171.492188 56.382812 171.429688 56.09375 171.410156 C 55.804688 171.390625 55.535156 171.410156 55.289062 171.472656 C 55.039062 171.535156 54.816406 171.632812 54.621094 171.777344 Z M 54.621094 171.777344 " fill-opacity="1" fill-rule="nonzero"/><g clip-path="url(#f422facb9e)"><path fill="#7b3911" d="M 57.792969 172.078125 C 57.792969 172.078125 56.175781 171.820312 55.46875 171.4375 C 52.992188 170.101562 49.460938 165.511719 49.460938 165.511719 C 49.460938 165.511719 53.179688 170.347656 53.949219 172.800781 C 54.179688 173.539062 54.109375 175.121094 54.109375 175.121094 Z M 57.792969 172.078125 " fill-opacity="1" fill-rule="nonzero"/></g><path fill="#7b3911" d="M 73.179688 160.140625 C 73.398438 160.246094 73.597656 160.386719 73.773438 160.574219 C 73.949219 160.761719 74.097656 160.984375 74.222656 161.246094 C 74.347656 161.507812 74.441406 161.804688 74.511719 162.132812 C 74.582031 162.460938 74.621094 162.816406 74.632812 163.199219 C 74.640625 163.582031 74.625 163.984375 74.574219 164.40625 C 74.527344 164.828125 74.449219 165.257812 74.347656 165.703125 C 74.242188 166.148438 74.109375 166.59375 73.953125 167.046875 C 73.796875 167.496094 73.613281 167.941406 73.410156 168.378906 C 73.207031 168.816406 72.980469 169.242188 72.738281 169.652344 C 72.496094 170.0625 72.238281 170.449219 71.964844 170.816406 C 71.691406 171.183594 71.410156 171.519531 71.117188 171.828125 C 70.824219 172.136719 70.53125 172.410156 70.230469 172.648438 C 69.929688 172.886719 69.632812 173.082031 69.335938 173.242188 C 69.042969 173.402344 68.753906 173.515625 68.472656 173.589844 C 68.191406 173.664062 67.921875 173.695312 67.667969 173.679688 C 67.414062 173.664062 67.175781 173.605469 66.957031 173.503906 C 66.738281 173.402344 66.539062 173.257812 66.363281 173.074219 C 66.1875 172.886719 66.039062 172.664062 65.914062 172.402344 C 65.789062 172.136719 65.691406 171.84375 65.625 171.515625 C 65.554688 171.183594 65.515625 170.828125 65.503906 170.449219 C 65.496094 170.066406 65.511719 169.664062 65.5625 169.242188 C 65.609375 168.820312 65.683594 168.386719 65.789062 167.941406 C 65.894531 167.5 66.027344 167.050781 66.183594 166.601562 C 66.339844 166.152344 66.523438 165.707031 66.726562 165.269531 C 66.929688 164.828125 67.15625 164.40625 67.398438 163.996094 C 67.640625 163.585938 67.898438 163.195312 68.171875 162.828125 C 68.445312 162.464844 68.726562 162.125 69.019531 161.820312 C 69.308594 161.511719 69.605469 161.238281 69.90625 161 C 70.207031 160.761719 70.503906 160.5625 70.800781 160.40625 C 71.09375 160.246094 71.382812 160.128906 71.664062 160.054688 C 71.945312 159.980469 72.214844 159.953125 72.46875 159.96875 C 72.722656 159.980469 72.960938 160.039062 73.179688 160.140625 Z M 73.179688 160.140625 " fill-opacity="1" fill-rule="nonzero"/><path fill="#7b3911" d="M 70.117188 161.027344 C 70.117188 161.027344 71.65625 160.472656 72.28125 159.96875 C 74.46875 158.195312 77.089844 153.03125 77.089844 153.03125 C 77.089844 153.03125 74.332031 158.472656 74.03125 161.023438 C 73.941406 161.792969 74.304688 163.335938 74.304688 163.335938 Z M 70.117188 161.027344 " fill-opacity="1" fill-rule="nonzero"/><path fill="#7b3911" d="M 56.484375 160.144531 C 56.265625 160.246094 56.070312 160.390625 55.894531 160.574219 C 55.71875 160.761719 55.566406 160.984375 55.445312 161.246094 C 55.320312 161.507812 55.222656 161.804688 55.152344 162.132812 C 55.085938 162.460938 55.042969 162.816406 55.035156 163.199219 C 55.023438 163.582031 55.042969 163.984375 55.089844 164.40625 C 55.136719 164.828125 55.214844 165.257812 55.320312 165.703125 C 55.425781 166.148438 55.554688 166.59375 55.710938 167.046875 C 55.871094 167.496094 56.050781 167.941406 56.253906 168.378906 C 56.460938 168.816406 56.683594 169.242188 56.925781 169.652344 C 57.171875 170.0625 57.429688 170.449219 57.699219 170.816406 C 57.972656 171.183594 58.257812 171.519531 58.546875 171.828125 C 58.839844 172.136719 59.136719 172.410156 59.433594 172.648438 C 59.734375 172.886719 60.03125 173.082031 60.328125 173.242188 C 60.625 173.402344 60.914062 173.515625 61.195312 173.589844 C 61.472656 173.664062 61.742188 173.695312 61.996094 173.679688 C 62.253906 173.664062 62.488281 173.605469 62.710938 173.503906 C 62.929688 173.402344 63.125 173.257812 63.300781 173.074219 C 63.476562 172.886719 63.625 172.664062 63.75 172.402344 C 63.875 172.136719 63.972656 171.84375 64.042969 171.515625 C 64.109375 171.1875 64.148438 170.832031 64.160156 170.449219 C 64.171875 170.066406 64.152344 169.664062 64.105469 169.242188 C 64.058594 168.820312 63.980469 168.386719 63.875 167.941406 C 63.769531 167.5 63.640625 167.050781 63.480469 166.601562 C 63.324219 166.152344 63.144531 165.707031 62.9375 165.269531 C 62.734375 164.828125 62.511719 164.40625 62.269531 163.996094 C 62.023438 163.585938 61.765625 163.195312 61.492188 162.828125 C 61.222656 162.464844 60.9375 162.125 60.648438 161.820312 C 60.355469 161.511719 60.058594 161.238281 59.761719 161 C 59.460938 160.761719 59.164062 160.5625 58.867188 160.40625 C 58.570312 160.246094 58.28125 160.128906 58 160.054688 C 57.71875 159.984375 57.453125 159.953125 57.199219 159.96875 C 56.941406 159.980469 56.703125 160.039062 56.484375 160.144531 Z M 56.484375 160.144531 " fill-opacity="1" fill-rule="nonzero"/><path fill="#7b3911" d="M 59.546875 161.027344 C 59.546875 161.027344 58.007812 160.472656 57.382812 159.96875 C 55.195312 158.195312 52.574219 153.03125 52.574219 153.03125 C 52.574219 153.03125 55.332031 158.472656 55.632812 161.023438 C 55.726562 161.792969 55.363281 163.335938 55.363281 163.335938 Z M 59.546875 161.027344 " fill-opacity="1" fill-rule="nonzero"/><g clip-path="url(#74465c01dc)"><path stroke-linecap="round" transform="matrix(0.112185, 0, 0, 0.112143, 272.356071, 123.650221)" fill="none" stroke-linejoin="miter" d="M 337.919032 360.259904 L 337.536016 945.277042 " stroke="#000000" stroke-width="10" stroke-opacity="1" stroke-miterlimit="4"/></g><path fill="#7b3911" d="M 309.988281 150.609375 C 310.230469 150.601562 310.46875 150.640625 310.710938 150.726562 C 310.953125 150.8125 311.1875 150.941406 311.417969 151.121094 C 311.644531 151.296875 311.867188 151.515625 312.078125 151.777344 C 312.289062 152.039062 312.484375 152.339844 312.667969 152.675781 C 312.851562 153.011719 313.015625 153.378906 313.164062 153.773438 C 313.3125 154.171875 313.441406 154.59375 313.550781 155.035156 C 313.65625 155.480469 313.742188 155.9375 313.808594 156.410156 C 313.871094 156.882812 313.910156 157.363281 313.929688 157.84375 C 313.945312 158.328125 313.9375 158.808594 313.90625 159.285156 C 313.878906 159.761719 313.824219 160.222656 313.746094 160.671875 C 313.667969 161.125 313.570312 161.550781 313.449219 161.957031 C 313.332031 162.367188 313.191406 162.742188 313.03125 163.089844 C 312.871094 163.4375 312.695312 163.75 312.503906 164.027344 C 312.3125 164.300781 312.109375 164.535156 311.890625 164.730469 C 311.675781 164.921875 311.449219 165.070312 311.214844 165.171875 C 310.980469 165.273438 310.742188 165.332031 310.503906 165.339844 C 310.261719 165.347656 310.019531 165.308594 309.777344 165.222656 C 309.539062 165.136719 309.300781 165.003906 309.074219 164.828125 C 308.84375 164.648438 308.621094 164.429688 308.410156 164.167969 C 308.203125 163.90625 308.003906 163.609375 307.820312 163.273438 C 307.640625 162.9375 307.472656 162.570312 307.324219 162.171875 C 307.175781 161.773438 307.046875 161.355469 306.941406 160.910156 C 306.832031 160.46875 306.746094 160.007812 306.683594 159.535156 C 306.617188 159.0625 306.578125 158.585938 306.5625 158.101562 C 306.542969 157.617188 306.550781 157.140625 306.582031 156.664062 C 306.613281 156.1875 306.664062 155.722656 306.742188 155.273438 C 306.820312 154.824219 306.917969 154.394531 307.039062 153.988281 C 307.160156 153.582031 307.296875 153.203125 307.457031 152.855469 C 307.617188 152.507812 307.792969 152.195312 307.984375 151.921875 C 308.175781 151.644531 308.378906 151.410156 308.597656 151.21875 C 308.8125 151.027344 309.039062 150.878906 309.273438 150.773438 C 309.507812 150.671875 309.746094 150.617188 309.988281 150.609375 Z M 309.988281 150.609375 " fill-opacity="1" fill-rule="nonzero"/><g clip-path="url(#f1e4fd9960)"><path fill="#7b3911" d="M 307.660156 152.785156 C 307.660156 152.785156 308.78125 151.59375 309.109375 150.859375 C 310.253906 148.289062 310.246094 142.496094 310.246094 142.496094 C 310.246094 142.496094 310.257812 148.597656 311.144531 151.007812 C 311.414062 151.738281 312.4375 152.945312 312.4375 152.945312 Z M 307.660156 152.785156 " fill-opacity="1" fill-rule="nonzero"/></g><path fill="#7b3911" d="M 320.457031 193.164062 C 320.65625 193.304688 320.820312 193.480469 320.960938 193.695312 C 321.097656 193.910156 321.203125 194.160156 321.277344 194.441406 C 321.351562 194.722656 321.390625 195.03125 321.398438 195.367188 C 321.40625 195.699219 321.378906 196.058594 321.316406 196.433594 C 321.257812 196.8125 321.164062 197.203125 321.039062 197.609375 C 320.914062 198.015625 320.757812 198.425781 320.574219 198.84375 C 320.386719 199.261719 320.175781 199.675781 319.9375 200.089844 C 319.699219 200.503906 319.441406 200.90625 319.15625 201.300781 C 318.875 201.691406 318.578125 202.066406 318.261719 202.425781 C 317.945312 202.785156 317.621094 203.117188 317.285156 203.429688 C 316.949219 203.738281 316.609375 204.015625 316.265625 204.265625 C 315.921875 204.511719 315.582031 204.726562 315.242188 204.90625 C 314.90625 205.082031 314.574219 205.222656 314.253906 205.324219 C 313.933594 205.425781 313.628906 205.488281 313.339844 205.507812 C 313.050781 205.527344 312.78125 205.507812 312.535156 205.445312 C 312.285156 205.382812 312.0625 205.28125 311.867188 205.140625 C 311.667969 205 311.503906 204.820312 311.363281 204.605469 C 311.226562 204.390625 311.121094 204.144531 311.046875 203.863281 C 310.972656 203.582031 310.933594 203.273438 310.925781 202.9375 C 310.917969 202.601562 310.945312 202.246094 311.007812 201.867188 C 311.066406 201.492188 311.160156 201.097656 311.285156 200.695312 C 311.410156 200.289062 311.566406 199.878906 311.75 199.460938 C 311.9375 199.042969 312.148438 198.628906 312.386719 198.214844 C 312.625 197.800781 312.882812 197.398438 313.167969 197.003906 C 313.449219 196.613281 313.746094 196.234375 314.0625 195.878906 C 314.378906 195.519531 314.703125 195.1875 315.039062 194.875 C 315.375 194.566406 315.714844 194.289062 316.058594 194.039062 C 316.402344 193.789062 316.742188 193.578125 317.082031 193.398438 C 317.421875 193.21875 317.75 193.082031 318.070312 192.980469 C 318.390625 192.878906 318.695312 192.816406 318.984375 192.796875 C 319.273438 192.777344 319.542969 192.796875 319.792969 192.859375 C 320.039062 192.921875 320.261719 193.023438 320.457031 193.164062 Z M 320.457031 193.164062 " fill-opacity="1" fill-rule="nonzero"/><g clip-path="url(#4ddaf2c0b8)"><path fill="#7b3911" d="M 317.285156 193.464844 C 317.285156 193.464844 318.902344 193.207031 319.609375 192.824219 C 322.085938 191.488281 325.617188 186.898438 325.617188 186.898438 C 325.617188 186.898438 321.902344 191.734375 321.132812 194.1875 C 320.898438 194.925781 320.972656 196.507812 320.972656 196.507812 Z M 317.285156 193.464844 " fill-opacity="1" fill-rule="nonzero"/></g><path fill="#7b3911" d="M 300.03125 193.164062 C 299.835938 193.304688 299.667969 193.480469 299.53125 193.695312 C 299.394531 193.914062 299.289062 194.160156 299.214844 194.441406 C 299.140625 194.722656 299.097656 195.03125 299.09375 195.367188 C 299.085938 195.699219 299.113281 196.058594 299.171875 196.4375 C 299.234375 196.8125 299.324219 197.203125 299.453125 197.609375 C 299.578125 198.015625 299.730469 198.425781 299.917969 198.84375 C 300.101562 199.261719 300.3125 199.675781 300.550781 200.089844 C 300.789062 200.503906 301.050781 200.90625 301.332031 201.300781 C 301.613281 201.691406 301.914062 202.070312 302.230469 202.425781 C 302.542969 202.785156 302.871094 203.117188 303.203125 203.429688 C 303.539062 203.738281 303.878906 204.015625 304.222656 204.265625 C 304.566406 204.511719 304.910156 204.726562 305.25 204.90625 C 305.585938 205.082031 305.914062 205.222656 306.234375 205.324219 C 306.554688 205.425781 306.863281 205.488281 307.152344 205.507812 C 307.441406 205.527344 307.710938 205.507812 307.957031 205.445312 C 308.207031 205.382812 308.429688 205.28125 308.625 205.140625 C 308.820312 205 308.988281 204.824219 309.125 204.605469 C 309.265625 204.390625 309.371094 204.144531 309.445312 203.863281 C 309.519531 203.582031 309.558594 203.273438 309.566406 202.9375 C 309.570312 202.601562 309.546875 202.246094 309.484375 201.867188 C 309.425781 201.492188 309.332031 201.101562 309.207031 200.695312 C 309.082031 200.289062 308.925781 199.878906 308.742188 199.460938 C 308.554688 199.042969 308.34375 198.628906 308.105469 198.214844 C 307.867188 197.800781 307.605469 197.398438 307.324219 197.003906 C 307.042969 196.613281 306.742188 196.234375 306.429688 195.878906 C 306.113281 195.519531 305.789062 195.1875 305.453125 194.875 C 305.117188 194.566406 304.777344 194.289062 304.433594 194.039062 C 304.089844 193.792969 303.746094 193.578125 303.410156 193.398438 C 303.070312 193.222656 302.742188 193.082031 302.421875 192.980469 C 302.101562 192.878906 301.796875 192.816406 301.507812 192.796875 C 301.214844 192.777344 300.949219 192.796875 300.699219 192.859375 C 300.453125 192.921875 300.230469 193.023438 300.03125 193.164062 Z M 300.03125 193.164062 " fill-opacity="1" fill-rule="nonzero"/><g clip-path="url(#707cad90b0)"><path fill="#7b3911" d="M 303.207031 193.464844 C 303.207031 193.464844 301.589844 193.207031 300.882812 192.824219 C 298.402344 191.488281 294.871094 186.898438 294.871094 186.898438 C 294.871094 186.898438 298.589844 191.734375 299.359375 194.1875 C 299.59375 194.925781 299.519531 196.507812 299.519531 196.507812 Z M 303.207031 193.464844 " fill-opacity="1" fill-rule="nonzero"/></g><path fill="#7b3911" d="M 320.457031 203.855469 C 320.65625 204 320.820312 204.175781 320.960938 204.390625 C 321.097656 204.605469 321.203125 204.855469 321.277344 205.132812 C 321.351562 205.414062 321.390625 205.722656 321.398438 206.058594 C 321.40625 206.394531 321.378906 206.75 321.316406 207.128906 C 321.257812 207.507812 321.164062 207.898438 321.039062 208.304688 C 320.914062 208.710938 320.757812 209.121094 320.574219 209.539062 C 320.386719 209.957031 320.175781 210.371094 319.9375 210.785156 C 319.699219 211.195312 319.441406 211.601562 319.15625 211.992188 C 318.875 212.386719 318.578125 212.761719 318.261719 213.121094 C 317.945312 213.480469 317.621094 213.8125 317.285156 214.121094 C 316.949219 214.429688 316.609375 214.710938 316.265625 214.957031 C 315.921875 215.207031 315.582031 215.421875 315.242188 215.597656 C 314.902344 215.777344 314.574219 215.917969 314.253906 216.019531 C 313.933594 216.121094 313.628906 216.179688 313.339844 216.199219 C 313.050781 216.222656 312.78125 216.199219 312.535156 216.140625 C 312.285156 216.078125 312.0625 215.976562 311.867188 215.835938 C 311.667969 215.695312 311.503906 215.515625 311.363281 215.300781 C 311.226562 215.085938 311.121094 214.839844 311.046875 214.558594 C 310.972656 214.277344 310.933594 213.96875 310.925781 213.632812 C 310.917969 213.296875 310.945312 212.941406 311.007812 212.5625 C 311.066406 212.183594 311.160156 211.792969 311.285156 211.386719 C 311.410156 210.984375 311.566406 210.570312 311.75 210.15625 C 311.9375 209.738281 312.148438 209.320312 312.386719 208.910156 C 312.625 208.496094 312.882812 208.09375 313.167969 207.699219 C 313.449219 207.304688 313.746094 206.929688 314.0625 206.570312 C 314.378906 206.214844 314.703125 205.878906 315.039062 205.570312 C 315.375 205.261719 315.714844 204.980469 316.058594 204.734375 C 316.402344 204.484375 316.742188 204.269531 317.082031 204.09375 C 317.421875 203.914062 317.75 203.773438 318.070312 203.671875 C 318.390625 203.574219 318.695312 203.511719 318.984375 203.492188 C 319.273438 203.472656 319.542969 203.492188 319.792969 203.554688 C 320.039062 203.613281 320.261719 203.714844 320.457031 203.855469 Z M 320.457031 203.855469 " fill-opacity="1" fill-rule="nonzero"/><g clip-path="url(#bd73c06078)"><path fill="#7b3911" d="M 317.285156 204.160156 C 317.285156 204.160156 318.902344 203.898438 319.609375 203.519531 C 322.085938 202.183594 325.617188 197.589844 325.617188 197.589844 C 325.617188 197.589844 321.902344 202.429688 321.132812 204.878906 C 320.898438 205.621094 320.972656 207.203125 320.972656 207.203125 Z M 317.285156 204.160156 " fill-opacity="1" fill-rule="nonzero"/></g><path fill="#7b3911" d="M 300.035156 203.855469 C 299.835938 204 299.667969 204.175781 299.53125 204.390625 C 299.394531 204.605469 299.289062 204.855469 299.214844 205.136719 C 299.140625 205.414062 299.101562 205.722656 299.09375 206.058594 C 299.085938 206.394531 299.113281 206.75 299.171875 207.128906 C 299.234375 207.507812 299.328125 207.898438 299.453125 208.304688 C 299.578125 208.710938 299.730469 209.121094 299.917969 209.539062 C 300.101562 209.957031 300.316406 210.371094 300.554688 210.785156 C 300.792969 211.195312 301.050781 211.601562 301.332031 211.992188 C 301.617188 212.386719 301.914062 212.761719 302.230469 213.121094 C 302.542969 213.480469 302.871094 213.8125 303.207031 214.121094 C 303.542969 214.429688 303.882812 214.710938 304.226562 214.957031 C 304.570312 215.207031 304.910156 215.421875 305.25 215.597656 C 305.585938 215.777344 305.917969 215.917969 306.238281 216.019531 C 306.558594 216.121094 306.863281 216.179688 307.152344 216.199219 C 307.441406 216.222656 307.710938 216.199219 307.957031 216.140625 C 308.207031 216.078125 308.429688 215.976562 308.625 215.835938 C 308.820312 215.695312 308.988281 215.515625 309.125 215.300781 C 309.265625 215.085938 309.371094 214.839844 309.445312 214.558594 C 309.519531 214.277344 309.558594 213.96875 309.566406 213.632812 C 309.570312 213.296875 309.546875 212.941406 309.484375 212.5625 C 309.425781 212.183594 309.332031 211.792969 309.207031 211.386719 C 309.082031 210.984375 308.925781 210.570312 308.742188 210.15625 C 308.554688 209.738281 308.34375 209.320312 308.105469 208.910156 C 307.867188 208.496094 307.605469 208.09375 307.324219 207.699219 C 307.042969 207.304688 306.746094 206.929688 306.429688 206.570312 C 306.113281 206.214844 305.789062 205.878906 305.453125 205.570312 C 305.117188 205.261719 304.777344 204.980469 304.433594 204.734375 C 304.089844 204.484375 303.75 204.273438 303.410156 204.09375 C 303.070312 203.914062 302.742188 203.773438 302.421875 203.671875 C 302.101562 203.574219 301.796875 203.511719 301.507812 203.492188 C 301.21875 203.472656 300.949219 203.492188 300.699219 203.554688 C 300.453125 203.613281 300.230469 203.714844 300.035156 203.855469 Z M 300.035156 203.855469 " fill-opacity="1" fill-rule="nonzero"/><g clip-path="url(#8c74fe7803)"><path fill="#7b3911" d="M 303.207031 204.160156 C 303.207031 204.160156 301.589844 203.898438 300.882812 203.519531 C 298.40625 202.183594 294.871094 197.589844 294.871094 197.589844 C 294.871094 197.589844 298.589844 202.429688 299.359375 204.878906 C 299.59375 205.621094 299.519531 207.203125 299.519531 207.203125 Z M 303.207031 204.160156 " fill-opacity="1" fill-rule="nonzero"/></g><path fill="#7b3911" d="M 320.457031 182.46875 C 320.65625 182.609375 320.820312 182.789062 320.960938 183.003906 C 321.097656 183.21875 321.203125 183.464844 321.277344 183.746094 C 321.351562 184.027344 321.390625 184.335938 321.398438 184.671875 C 321.40625 185.007812 321.378906 185.363281 321.316406 185.742188 C 321.257812 186.121094 321.164062 186.511719 321.039062 186.917969 C 320.914062 187.320312 320.757812 187.734375 320.574219 188.148438 C 320.386719 188.566406 320.175781 188.984375 319.9375 189.394531 C 319.699219 189.808594 319.441406 190.210938 319.15625 190.605469 C 318.875 191 318.578125 191.375 318.261719 191.734375 C 317.945312 192.089844 317.621094 192.425781 317.285156 192.734375 C 316.949219 193.042969 316.609375 193.324219 316.265625 193.570312 C 315.921875 193.820312 315.582031 194.035156 315.242188 194.210938 C 314.902344 194.390625 314.574219 194.53125 314.253906 194.632812 C 313.933594 194.730469 313.628906 194.792969 313.339844 194.8125 C 313.050781 194.832031 312.78125 194.8125 312.535156 194.75 C 312.285156 194.691406 312.0625 194.589844 311.867188 194.449219 C 311.667969 194.304688 311.503906 194.128906 311.363281 193.914062 C 311.226562 193.699219 311.121094 193.449219 311.046875 193.171875 C 310.972656 192.890625 310.933594 192.582031 310.925781 192.246094 C 310.917969 191.910156 310.945312 191.554688 311.007812 191.175781 C 311.066406 190.796875 311.160156 190.40625 311.285156 190 C 311.410156 189.59375 311.566406 189.183594 311.75 188.765625 C 311.9375 188.347656 312.148438 187.933594 312.386719 187.519531 C 312.625 187.109375 312.882812 186.703125 313.167969 186.3125 C 313.449219 185.917969 313.746094 185.542969 314.0625 185.183594 C 314.378906 184.824219 314.703125 184.492188 315.039062 184.183594 C 315.375 183.875 315.714844 183.59375 316.058594 183.347656 C 316.402344 183.097656 316.742188 182.882812 317.082031 182.707031 C 317.421875 182.527344 317.75 182.386719 318.070312 182.285156 C 318.390625 182.183594 318.695312 182.125 318.984375 182.105469 C 319.273438 182.082031 319.542969 182.105469 319.789062 182.164062 C 320.039062 182.226562 320.261719 182.328125 320.457031 182.46875 Z M 320.457031 182.46875 " fill-opacity="1" fill-rule="nonzero"/><g clip-path="url(#0ed7ded9c9)"><path fill="#7b3911" d="M 317.285156 182.773438 C 317.285156 182.773438 318.902344 182.511719 319.609375 182.132812 C 322.085938 180.796875 325.617188 176.203125 325.617188 176.203125 C 325.617188 176.203125 321.902344 181.042969 321.132812 183.492188 C 320.898438 184.234375 320.972656 185.816406 320.972656 185.816406 Z M 317.285156 182.773438 " fill-opacity="1" fill-rule="nonzero"/></g><path fill="#7b3911" d="M 300.035156 182.46875 C 299.835938 182.609375 299.667969 182.789062 299.53125 183.003906 C 299.394531 183.21875 299.289062 183.464844 299.214844 183.746094 C 299.140625 184.027344 299.101562 184.335938 299.09375 184.671875 C 299.085938 185.007812 299.113281 185.363281 299.171875 185.742188 C 299.234375 186.121094 299.328125 186.511719 299.453125 186.917969 C 299.578125 187.320312 299.734375 187.734375 299.917969 188.148438 C 300.101562 188.566406 300.316406 188.984375 300.554688 189.394531 C 300.792969 189.808594 301.050781 190.210938 301.332031 190.605469 C 301.617188 191 301.914062 191.375 302.230469 191.734375 C 302.542969 192.089844 302.871094 192.425781 303.207031 192.734375 C 303.542969 193.042969 303.882812 193.324219 304.226562 193.570312 C 304.570312 193.820312 304.910156 194.035156 305.25 194.210938 C 305.585938 194.390625 305.917969 194.53125 306.238281 194.632812 C 306.558594 194.734375 306.863281 194.792969 307.152344 194.8125 C 307.441406 194.832031 307.710938 194.8125 307.957031 194.75 C 308.207031 194.691406 308.429688 194.589844 308.625 194.449219 C 308.820312 194.308594 308.988281 194.128906 309.128906 193.914062 C 309.265625 193.699219 309.371094 193.449219 309.445312 193.171875 C 309.519531 192.890625 309.558594 192.582031 309.566406 192.246094 C 309.574219 191.910156 309.546875 191.554688 309.484375 191.175781 C 309.425781 190.796875 309.332031 190.40625 309.207031 190 C 309.082031 189.59375 308.925781 189.183594 308.742188 188.765625 C 308.554688 188.347656 308.34375 187.933594 308.105469 187.519531 C 307.867188 187.109375 307.605469 186.703125 307.324219 186.3125 C 307.042969 185.917969 306.746094 185.542969 306.429688 185.183594 C 306.113281 184.824219 305.789062 184.492188 305.453125 184.183594 C 305.117188 183.875 304.777344 183.59375 304.433594 183.347656 C 304.089844 183.097656 303.75 182.882812 303.410156 182.707031 C 303.070312 182.527344 302.742188 182.386719 302.421875 182.285156 C 302.101562 182.183594 301.796875 182.125 301.507812 182.105469 C 301.21875 182.082031 300.949219 182.105469 300.699219 182.164062 C 300.453125 182.226562 300.230469 182.328125 300.035156 182.46875 Z M 300.035156 182.46875 " fill-opacity="1" fill-rule="nonzero"/><g clip-path="url(#d7526de8e0)"><path fill="#7b3911" d="M 303.207031 182.773438 C 303.207031 182.773438 301.589844 182.511719 300.882812 182.132812 C 298.40625 180.796875 294.871094 176.203125 294.871094 176.203125 C 294.871094 176.203125 298.589844 181.042969 299.359375 183.492188 C 299.59375 184.234375 299.519531 185.816406 299.519531 185.816406 Z M 303.207031 182.773438 " fill-opacity="1" fill-rule="nonzero"/></g><path fill="#7b3911" d="M 320.457031 171.777344 C 320.65625 171.917969 320.820312 172.09375 320.960938 172.308594 C 321.097656 172.523438 321.203125 172.773438 321.277344 173.054688 C 321.351562 173.332031 321.390625 173.640625 321.398438 173.976562 C 321.40625 174.3125 321.378906 174.671875 321.316406 175.046875 C 321.257812 175.425781 321.164062 175.816406 321.039062 176.222656 C 320.914062 176.628906 320.757812 177.039062 320.574219 177.457031 C 320.386719 177.875 320.175781 178.289062 319.9375 178.703125 C 319.699219 179.113281 319.441406 179.519531 319.15625 179.910156 C 318.875 180.304688 318.578125 180.679688 318.261719 181.039062 C 317.945312 181.398438 317.621094 181.730469 317.285156 182.039062 C 316.949219 182.347656 316.609375 182.628906 316.265625 182.878906 C 315.921875 183.125 315.582031 183.339844 315.242188 183.519531 C 314.902344 183.695312 314.574219 183.835938 314.253906 183.9375 C 313.933594 184.039062 313.628906 184.097656 313.339844 184.121094 C 313.050781 184.140625 312.78125 184.117188 312.535156 184.058594 C 312.285156 183.996094 312.0625 183.894531 311.867188 183.753906 C 311.667969 183.613281 311.503906 183.433594 311.363281 183.21875 C 311.226562 183.003906 311.121094 182.757812 311.046875 182.476562 C 310.972656 182.195312 310.933594 181.886719 310.925781 181.550781 C 310.917969 181.214844 310.945312 180.859375 311.007812 180.480469 C 311.066406 180.101562 311.160156 179.710938 311.285156 179.308594 C 311.410156 178.902344 311.566406 178.488281 311.75 178.074219 C 311.9375 177.65625 312.148438 177.242188 312.386719 176.828125 C 312.625 176.414062 312.882812 176.011719 313.167969 175.617188 C 313.449219 175.222656 313.746094 174.847656 314.0625 174.492188 C 314.378906 174.132812 314.703125 173.796875 315.039062 173.488281 C 315.375 173.179688 315.714844 172.902344 316.058594 172.652344 C 316.402344 172.402344 316.742188 172.191406 317.082031 172.011719 C 317.421875 171.832031 317.75 171.691406 318.070312 171.59375 C 318.390625 171.492188 318.695312 171.429688 318.984375 171.410156 C 319.273438 171.390625 319.542969 171.410156 319.789062 171.472656 C 320.039062 171.535156 320.261719 171.632812 320.457031 171.777344 Z M 320.457031 171.777344 " fill-opacity="1" fill-rule="nonzero"/><g clip-path="url(#4a34130e8f)"><path fill="#7b3911" d="M 317.285156 172.078125 C 317.285156 172.078125 318.902344 171.820312 319.609375 171.4375 C 322.085938 170.101562 325.617188 165.511719 325.617188 165.511719 C 325.617188 165.511719 321.902344 170.347656 321.132812 172.800781 C 320.898438 173.539062 320.972656 175.121094 320.972656 175.121094 Z M 317.285156 172.078125 " fill-opacity="1" fill-rule="nonzero"/></g><path fill="#7b3911" d="M 300.035156 171.777344 C 299.835938 171.917969 299.667969 172.09375 299.53125 172.308594 C 299.394531 172.523438 299.289062 172.773438 299.214844 173.054688 C 299.140625 173.335938 299.101562 173.640625 299.09375 173.976562 C 299.085938 174.3125 299.113281 174.671875 299.171875 175.046875 C 299.234375 175.425781 299.328125 175.816406 299.453125 176.222656 C 299.578125 176.628906 299.734375 177.039062 299.917969 177.457031 C 300.101562 177.875 300.316406 178.289062 300.554688 178.703125 C 300.792969 179.117188 301.050781 179.519531 301.332031 179.910156 C 301.617188 180.304688 301.914062 180.679688 302.230469 181.039062 C 302.542969 181.398438 302.871094 181.730469 303.207031 182.039062 C 303.542969 182.351562 303.882812 182.628906 304.226562 182.878906 C 304.570312 183.125 304.910156 183.339844 305.25 183.519531 C 305.585938 183.695312 305.917969 183.835938 306.238281 183.9375 C 306.558594 184.039062 306.863281 184.097656 307.152344 184.121094 C 307.441406 184.140625 307.710938 184.121094 307.957031 184.058594 C 308.207031 183.996094 308.429688 183.894531 308.625 183.753906 C 308.820312 183.613281 308.988281 183.433594 309.128906 183.21875 C 309.265625 183.003906 309.371094 182.757812 309.445312 182.476562 C 309.519531 182.195312 309.558594 181.886719 309.566406 181.550781 C 309.574219 181.214844 309.546875 180.859375 309.484375 180.480469 C 309.425781 180.105469 309.332031 179.710938 309.207031 179.308594 C 309.082031 178.902344 308.925781 178.492188 308.742188 178.074219 C 308.554688 177.65625 308.34375 177.242188 308.105469 176.828125 C 307.867188 176.414062 307.605469 176.011719 307.324219 175.617188 C 307.042969 175.222656 306.746094 174.847656 306.429688 174.492188 C 306.113281 174.132812 305.789062 173.796875 305.453125 173.488281 C 305.117188 173.179688 304.777344 172.902344 304.433594 172.652344 C 304.089844 172.402344 303.75 172.191406 303.410156 172.011719 C 303.070312 171.832031 302.742188 171.695312 302.421875 171.59375 C 302.101562 171.492188 301.796875 171.429688 301.507812 171.410156 C 301.21875 171.390625 300.949219 171.410156 300.699219 171.472656 C 300.453125 171.535156 300.230469 171.632812 300.035156 171.777344 Z M 300.035156 171.777344 " fill-opacity="1" fill-rule="nonzero"/><g clip-path="url(#ae709efbc2)"><path fill="#7b3911" d="M 303.207031 172.078125 C 303.207031 172.078125 301.589844 171.820312 300.882812 171.4375 C 298.40625 170.101562 294.871094 165.511719 294.871094 165.511719 C 294.871094 165.511719 298.589844 170.347656 299.359375 172.800781 C 299.59375 173.539062 299.519531 175.121094 299.519531 175.121094 Z M 303.207031 172.078125 " fill-opacity="1" fill-rule="nonzero"/></g><path fill="#7b3911" d="M 318.59375 160.140625 C 318.8125 160.246094 319.007812 160.386719 319.183594 160.574219 C 319.359375 160.761719 319.511719 160.984375 319.632812 161.246094 C 319.757812 161.507812 319.855469 161.804688 319.925781 162.132812 C 319.992188 162.460938 320.035156 162.816406 320.042969 163.199219 C 320.054688 163.582031 320.035156 163.984375 319.988281 164.40625 C 319.941406 164.828125 319.863281 165.257812 319.757812 165.703125 C 319.652344 166.148438 319.523438 166.59375 319.367188 167.046875 C 319.207031 167.496094 319.027344 167.941406 318.824219 168.378906 C 318.617188 168.816406 318.394531 169.242188 318.152344 169.652344 C 317.90625 170.0625 317.648438 170.449219 317.378906 170.816406 C 317.105469 171.183594 316.824219 171.519531 316.53125 171.828125 C 316.238281 172.136719 315.941406 172.410156 315.644531 172.648438 C 315.34375 172.886719 315.046875 173.082031 314.75 173.242188 C 314.453125 173.402344 314.164062 173.515625 313.886719 173.589844 C 313.605469 173.664062 313.335938 173.695312 313.082031 173.679688 C 312.824219 173.664062 312.589844 173.605469 312.367188 173.503906 C 312.148438 173.402344 311.953125 173.257812 311.777344 173.074219 C 311.601562 172.886719 311.453125 172.664062 311.328125 172.402344 C 311.203125 172.136719 311.105469 171.84375 311.035156 171.515625 C 310.96875 171.183594 310.929688 170.828125 310.917969 170.449219 C 310.90625 170.066406 310.925781 169.664062 310.972656 169.242188 C 311.023438 168.820312 311.097656 168.386719 311.203125 167.941406 C 311.308594 167.5 311.4375 167.050781 311.597656 166.601562 C 311.753906 166.152344 311.933594 165.707031 312.140625 165.269531 C 312.34375 164.828125 312.566406 164.40625 312.8125 163.996094 C 313.054688 163.585938 313.3125 163.195312 313.585938 162.828125 C 313.855469 162.464844 314.140625 162.125 314.429688 161.820312 C 314.722656 161.511719 315.019531 161.238281 315.320312 161 C 315.617188 160.761719 315.914062 160.5625 316.210938 160.40625 C 316.507812 160.246094 316.796875 160.128906 317.078125 160.054688 C 317.359375 159.980469 317.625 159.953125 317.882812 159.96875 C 318.136719 159.980469 318.375 160.039062 318.59375 160.140625 Z M 318.59375 160.140625 " fill-opacity="1" fill-rule="nonzero"/><path fill="#7b3911" d="M 315.53125 161.027344 C 315.53125 161.027344 317.070312 160.472656 317.695312 159.96875 C 319.882812 158.195312 322.503906 153.03125 322.503906 153.03125 C 322.503906 153.03125 319.746094 158.472656 319.445312 161.023438 C 319.351562 161.792969 319.714844 163.335938 319.714844 163.335938 Z M 315.53125 161.027344 " fill-opacity="1" fill-rule="nonzero"/><path fill="#7b3911" d="M 301.898438 160.144531 C 301.679688 160.246094 301.480469 160.390625 301.304688 160.574219 C 301.132812 160.761719 300.980469 160.984375 300.855469 161.246094 C 300.730469 161.507812 300.636719 161.804688 300.566406 162.132812 C 300.496094 162.460938 300.457031 162.816406 300.445312 163.199219 C 300.4375 163.582031 300.453125 163.984375 300.503906 164.40625 C 300.550781 164.828125 300.628906 165.257812 300.730469 165.703125 C 300.835938 166.148438 300.96875 166.59375 301.125 167.046875 C 301.28125 167.496094 301.464844 167.941406 301.667969 168.378906 C 301.871094 168.816406 302.097656 169.242188 302.339844 169.652344 C 302.582031 170.0625 302.839844 170.449219 303.113281 170.816406 C 303.386719 171.183594 303.667969 171.519531 303.960938 171.828125 C 304.253906 172.136719 304.546875 172.410156 304.847656 172.648438 C 305.148438 172.886719 305.445312 173.082031 305.742188 173.242188 C 306.035156 173.402344 306.324219 173.515625 306.605469 173.589844 C 306.886719 173.664062 307.15625 173.695312 307.410156 173.679688 C 307.664062 173.664062 307.902344 173.605469 308.121094 173.503906 C 308.339844 173.402344 308.539062 173.257812 308.714844 173.074219 C 308.890625 172.886719 309.039062 172.664062 309.164062 172.402344 C 309.289062 172.136719 309.386719 171.84375 309.453125 171.515625 C 309.523438 171.1875 309.5625 170.832031 309.574219 170.449219 C 309.585938 170.066406 309.566406 169.664062 309.515625 169.242188 C 309.46875 168.820312 309.394531 168.386719 309.289062 167.941406 C 309.183594 167.5 309.050781 167.050781 308.894531 166.601562 C 308.738281 166.152344 308.554688 165.707031 308.351562 165.269531 C 308.148438 164.828125 307.921875 164.40625 307.679688 163.996094 C 307.4375 163.585938 307.179688 163.195312 306.90625 162.828125 C 306.632812 162.464844 306.351562 162.125 306.058594 161.820312 C 305.769531 161.511719 305.472656 161.238281 305.171875 161 C 304.875 160.761719 304.574219 160.5625 304.28125 160.40625 C 303.984375 160.246094 303.695312 160.128906 303.414062 160.054688 C 303.132812 159.984375 302.863281 159.953125 302.609375 159.96875 C 302.355469 159.980469 302.117188 160.039062 301.898438 160.144531 Z M 301.898438 160.144531 " fill-opacity="1" fill-rule="nonzero"/><path fill="#7b3911" d="M 304.960938 161.027344 C 304.960938 161.027344 303.421875 160.472656 302.796875 159.96875 C 300.609375 158.195312 297.988281 153.03125 297.988281 153.03125 C 297.988281 153.03125 300.746094 158.472656 301.046875 161.023438 C 301.136719 161.792969 300.773438 163.335938 300.773438 163.335938 Z M 304.960938 161.027344 " fill-opacity="1" fill-rule="nonzero"/><g fill="#7b3911" fill-opacity="1"><g transform="translate(91.165714, 92.212245)"><g><path d="M 0.484375 -5.09375 L -1.796875 -24.1875 L -4.109375 -23.328125 L -5.5 -26.171875 L 2.53125 -30.0625 L 19.53125 -13.296875 L 19.5625 -13.3125 L 21.609375 -14.171875 L 23.0625 -11.1875 L 14 -6.796875 L 12.625 -9.640625 L 13.90625 -10.390625 C 14.28125 -10.628906 14.503906 -10.851562 14.578125 -11.0625 C 14.648438 -11.269531 14.539062 -11.53125 14.25 -11.84375 L 12.453125 -13.671875 L 4.21875 -9.671875 L 4.671875 -6.09375 L 6.828125 -7 L 8.28125 -4.015625 L 0.171875 -0.078125 L -1.203125 -2.921875 L -0.109375 -3.59375 C 0.359375 -3.875 0.554688 -4.375 0.484375 -5.09375 Z M 1.921875 -24.90625 L 3.5 -13.328125 L 10.046875 -16.5 L 2.015625 -24.953125 Z M 1.921875 -24.90625 "/></g></g></g><g fill="#7b3911" fill-opacity="1"><g transform="translate(117.971757, 79.686392)"><g><path d="M 10.6875 -27.40625 L 5.234375 -5.578125 L 12.453125 -7.90625 C 13.066406 -8.101562 13.242188 -8.601562 12.984375 -9.40625 L 12.15625 -12 L 16.015625 -12.96875 L 18.296875 -5.921875 L 1.21875 -0.390625 L 0.21875 -3.46875 L 5.578125 -25.171875 L -0.578125 -23.1875 C -1.234375 -22.96875 -1.4375 -22.476562 -1.1875 -21.71875 L -0.71875 -20.21875 L -4.59375 -19.265625 L -6.5 -25.171875 L 9.71875 -30.421875 Z M 10.6875 -27.40625 "/></g></g></g><g fill="#7b3911" fill-opacity="1"><g transform="translate(141.378192, 72.202663)"><g><path d="M 8.6875 -28.328125 C 11.726562 -28.867188 14.460938 -28.242188 16.890625 -26.453125 C 19.316406 -24.671875 20.914062 -21.570312 21.6875 -17.15625 C 22.46875 -12.738281 22.039062 -9.210938 20.40625 -6.578125 C 18.769531 -3.953125 16.21875 -2.332031 12.75 -1.71875 C 9.28125 -1.113281 6.359375 -1.765625 3.984375 -3.671875 C 1.617188 -5.578125 0.0546875 -8.6875 -0.703125 -13 C -1.117188 -15.34375 -1.132812 -17.46875 -0.75 -19.375 C -0.375 -21.28125 0.296875 -22.816406 1.265625 -23.984375 C 3.179688 -26.347656 5.65625 -27.796875 8.6875 -28.328125 Z M 4.078125 -14.015625 C 5.191406 -7.671875 7.945312 -4.890625 12.34375 -5.671875 C 14.707031 -6.078125 16.191406 -7.335938 16.796875 -9.453125 C 17.359375 -11.316406 17.421875 -13.492188 16.984375 -15.984375 C 16.597656 -18.203125 15.859375 -20.1875 14.765625 -21.9375 C 14.148438 -22.875 13.347656 -23.554688 12.359375 -23.984375 C 11.378906 -24.421875 10.179688 -24.515625 8.765625 -24.265625 C 7.359375 -24.015625 6.226562 -23.335938 5.375 -22.234375 C 4.53125 -21.140625 4.03125 -19.90625 3.875 -18.53125 C 3.71875 -17.164062 3.785156 -15.660156 4.078125 -14.015625 Z M 4.078125 -14.015625 "/></g></g></g><g fill="#7b3911" fill-opacity="1"><g transform="translate(170.660558, 67.496489)"><g><path d="M 19.765625 -0.6875 L 1.25 -0.046875 L 1.140625 -3.203125 L 2.421875 -3.375 C 3.171875 -3.46875 3.535156 -3.84375 3.515625 -4.5 L 2.890625 -22.625 L 0.65625 -22.65625 L 0.546875 -25.984375 L 9.953125 -26.3125 L 10.0625 -23.140625 L 8.78125 -22.984375 C 8.019531 -22.878906 7.65625 -22.453125 7.6875 -21.703125 L 8.28125 -4.3125 L 14.75 -4.53125 C 15.113281 -4.539062 15.347656 -4.644531 15.453125 -4.84375 C 15.566406 -5.050781 15.613281 -5.375 15.59375 -5.8125 L 15.5 -8.546875 L 19.5 -8.40625 Z M 19.765625 -0.6875 "/></g></g></g><g fill="#7b3911" fill-opacity="1"><g transform="translate(195.418443, 66.77967)"><g><path d="M 1.25 0.125 L 1.5625 -3.015625 L 2.84375 -3.015625 C 3.613281 -3.003906 4.03125 -3.328125 4.09375 -3.984375 L 5.9375 -22.03125 L 3.71875 -22.375 L 4.0625 -25.671875 L 14.65625 -24.59375 C 17.664062 -24.289062 19.910156 -23.5 21.390625 -22.21875 C 22.878906 -20.945312 23.492188 -19.039062 23.234375 -16.5 C 23.054688 -14.738281 22.453125 -13.335938 21.421875 -12.296875 C 20.390625 -11.253906 19.210938 -10.539062 17.890625 -10.15625 C 18.796875 -9.707031 19.457031 -8.835938 19.875 -7.546875 L 22.046875 -1.171875 L 24.234375 -0.875 L 23.90625 2.421875 L 14.3125 1.453125 L 14.625 -1.6875 L 15.78125 -1.703125 C 16.382812 -1.710938 16.707031 -1.914062 16.75 -2.3125 C 16.757812 -2.46875 16.722656 -2.65625 16.640625 -2.875 L 15.203125 -6.921875 C 14.984375 -7.609375 14.710938 -8.101562 14.390625 -8.40625 C 14.078125 -8.707031 13.597656 -8.894531 12.953125 -8.96875 L 9.40625 -9.328125 L 8.71875 -2.578125 L 11.234375 -2.1875 L 10.90625 1.109375 Z M 9.78125 -13 L 13.171875 -12.65625 C 16.359375 -12.332031 18.097656 -13.597656 18.390625 -16.453125 C 18.554688 -18.078125 18.238281 -19.175781 17.4375 -19.75 C 16.632812 -20.332031 15.304688 -20.71875 13.453125 -20.90625 L 10.609375 -21.203125 Z M 9.78125 -13 "/></g></g></g><g fill="#7b3911" fill-opacity="1"><g transform="translate(223.714032, 70.245322)"><g><path d="M 4.5625 -3.671875 L 8.40625 -21.21875 L 6.25 -21.78125 L 6.953125 -25.046875 L 16.1875 -23.03125 L 15.515625 -19.921875 L 14.21875 -20.09375 C 13.46875 -20.175781 13.007812 -19.847656 12.84375 -19.109375 L 9 -1.546875 L 11.140625 -0.953125 L 10.4375 2.28125 L 1.21875 0.265625 L 1.890625 -2.8125 L 3.171875 -2.65625 C 3.566406 -2.625 3.875 -2.671875 4.09375 -2.796875 C 4.3125 -2.921875 4.46875 -3.210938 4.5625 -3.671875 Z M 4.5625 -3.671875 "/></g></g></g><g fill="#7b3911" fill-opacity="1"><g transform="translate(239.485973, 73.603307)"><g><path d="M 23.125 -15.1875 C 23.007812 -15.738281 22.078125 -16.3125 20.328125 -16.90625 C 18.035156 -17.675781 16.035156 -17.488281 14.328125 -16.34375 C 12.617188 -15.195312 11.265625 -13.15625 10.265625 -10.21875 C 8.203125 -4.144531 9.453125 -0.335938 14.015625 1.203125 C 14.078125 1.222656 14.398438 1.332031 14.984375 1.53125 C 15.566406 1.726562 16.140625 1.835938 16.703125 1.859375 C 17.273438 1.878906 17.640625 1.820312 17.796875 1.6875 C 17.960938 1.550781 18.109375 1.296875 18.234375 0.921875 L 19.234375 -2.015625 L 22.921875 -0.5 L 20.75 5.890625 C 18.488281 6.242188 15.878906 5.914062 12.921875 4.90625 C 9.148438 3.632812 6.632812 1.601562 5.375 -1.1875 C 4.113281 -3.976562 4.195312 -7.46875 5.625 -11.65625 C 6.40625 -13.96875 7.414062 -15.867188 8.65625 -17.359375 C 9.90625 -18.859375 11.265625 -19.894531 12.734375 -20.46875 C 15.566406 -21.5625 18.515625 -21.59375 21.578125 -20.5625 C 24.046875 -19.71875 26.1875 -18.429688 28 -16.703125 L 25.875 -10.421875 L 22.03125 -11.421875 L 23.015625 -14.3125 C 23.128906 -14.675781 23.164062 -14.96875 23.125 -15.1875 Z M 23.125 -15.1875 "/></g></g></g><g fill="#7b3911" fill-opacity="1"><g transform="translate(265.234574, 82.698634)"><g><path d="M 17.78125 8.859375 L 1.1875 0.59375 L 2.59375 -2.234375 L 3.796875 -1.78125 C 4.515625 -1.5 5.019531 -1.65625 5.3125 -2.25 L 13.40625 -18.484375 L 11.453125 -19.578125 L 12.9375 -22.5625 L 28.9375 -14.59375 L 26.046875 -8.78125 L 22.34375 -10.3125 L 23.03125 -11.703125 C 23.226562 -12.097656 23.3125 -12.40625 23.28125 -12.625 C 23.25 -12.84375 23.015625 -13.0625 22.578125 -13.28125 L 17.40625 -15.859375 L 14.4375 -9.890625 L 22.5 -5.875 L 20.71875 -2.3125 L 12.65625 -6.328125 L 9.40625 0.203125 L 15.03125 3 C 15.445312 3.207031 15.753906 3.25 15.953125 3.125 C 16.160156 3.007812 16.359375 2.753906 16.546875 2.359375 L 17.421875 0.625 L 20.875 2.65625 Z M 17.78125 8.859375 "/></g></g></g></svg>